<?xml version="1.0" encoding="utf-8"?>
<!-- Generator: Adobe Illustrator 25.4.1, SVG Export Plug-In . SVG Version: 6.00 Build 0)  -->
<svg version="1.1" id="Capa_1" xmlns="http://www.w3.org/2000/svg" xmlns:xlink="http://www.w3.org/1999/xlink" x="0px" y="0px"
	 viewBox="0 0 100 100" style="enable-background:new 0 0 100 100;" xml:space="preserve">
<style type="text/css">
	.st0{fill:#FFFFFF;}
</style>
<g>
	<path class="st0" d="M90.2,53.8l5.9-13c0,0-23-2.2-23.1-2.2l-11-15.1L50.3,20l-1.9,2.6l-5.5-2l-8.2-1.1l-1.3,4l-3.7-0.5l-8.2,2.2
		L9.3,35.3l-0.7,4.9l-7.3,5.8L7,56.3l7.6,6.1l0.6,13.4l4.1,0c-0.1-0.4-0.1-0.7-0.1-1.1c0-4.1,3.4-7.5,7.5-7.5s7.5,3.4,7.5,7.5
		c0,0.5,0,0.9-0.1,1.4l0.7,0.1l38.4,0.1c-0.2-0.8-0.4-1.6-0.4-2.5c0-4.7,3.8-8.4,8.4-8.4c4.7,0,8.4,3.8,8.4,8.4
		c0,0.9-0.1,1.8-0.4,2.6l5,0l5.2-11.6L90.2,53.8z"/>
	<circle cx="26.7" cy="74.9" r="7.1"/>
	<circle class="st0" cx="26.7" cy="74.9" r="1.8"/>
	<circle cx="81.3" cy="74.9" r="7.1"/>
	<circle class="st0" cx="81.3" cy="74.9" r="1.8"/>
	<g>
		<path d="M57.7,24.6c-1.1-0.6-2.4-0.9-3.6-1.1c-0.4-0.1-0.5,0.6-0.1,0.6c0.7,0.1,1.5,0.3,2.2,0.5c0,0-0.1,0-0.1,0
			c0.7,0.2,1.3,0.5,1.9,0.8c0,0,0.1,0.1,0,0c0.3,0.2,0.9,0.7,1,0.9c0.1,0.2,0.6,0.2,0.6-0.1C59.6,25.6,58.3,24.9,57.7,24.6z"/>
		<polygon points="64.1,76.9 64.9,76.9 64.1,76.9 		"/>
		<path d="M73,75.8C73,75.8,73,75.7,73,75.8c-5.8-0.3-32.7,0.2-38.7-0.5c0,0.5-0.1,0.9-0.2,1.3c7.7,0.2,32.1,0.8,39.3,0.2
			c-0.1-0.3-0.2-0.3-0.3-0.6L73,75.8z"/>
		<path d="M90.7,53.7L97,40.5L73,38l-6.8-9.4c-1.9-7.3-10.3-9.9-17.1-9.6c-1.2,0.1-1.7,1-1.4,2.2c-4.3-2.7-9.6-3.6-14.6-2.9
			c-1.7,0.5-1,2.6-0.9,3.8c-2-0.3-4.1-0.2-6.2,0c-1.8,0.2-9.2,1.7-7.8,4.4c-4.5,1.9-8.6,5-10.8,9.4c-0.6,1.2-1.1,2.5-0.6,3.8
			c-3,1.5-8.1,3.7-6.7,7.9c1.7,4.3,4.3,9.1,9,10.7c1.1,1.8,2.6,3.4,4.3,4.6c-0.1,0.7,0.3,1.6,0.6,2.3l0.2,6l-4.4,0.1
			c-1,0-1.8,0.9-1.8,1.8c0,1,0.8,1.8,1.8,1.8l4.5-0.1l0.1,1.8c0,0,4.7,0,4.7,0c-0.1-0.4-0.2-0.8-0.2-1.2l-3.4,0l0-0.6l1.8,0
			l-0.1-3.6l-1.9,0l-0.1-3.6c1.1,1.6,2.6,3,4.3,4c0.3-0.8,0.8-1.5,1.4-2.2c-1.8-1.1-3.2-2.6-4-4.5c2.7,1.1,5.7,1.5,8.6,0.9
			c0.1,0.4,0.3,0.8,0.4,1.2c1.2-0.1,2.5,0.1,3.5,0.6c-0.4-0.5-0.8-1.1-1-1.7c3.6,1.4,7.8,1.7,11.6,0.4c-0.5,0.4-0.7,0.8-1.3,1.2
			c-0.3,0.2-0.6,0.4-0.9,0.6c-1.2,0.7-2.7,1.1-4.1,1.1c-0.1,0-0.2,0.2,0,0.2c1.5,0.4,3.1,0.5,4.6,0.2c1.4-0.2,2.7-0.7,3.8-1.6
			c1.7,0.5,3.5,0.8,5.3,0.6c-4.4,2.3-9.9,4-14.7,1.6c0.7,1,1.1,2.1,1.3,3.3c5.3,1.3,11-0.6,15.2-3.8l-1,4l10,0.4L69,67l4.3-26
			l-5.5-0.5c-0.8-1.9-2.4-3.2-4.3-3.6c1.8-1.5,2.8-3.8,2.9-6l5.9,8.1l22.8,2.4l-5.9,12.4l9.3,10.9c-1.1,2.7-3.6,8.2-4.8,10.9l-4.4,0
			c-0.1,0.4-0.1,0.8-0.3,1.2l5.4,0c1.4-3,4.2-9.2,5.5-12.3L90.7,53.7z M41.8,21.6c2.4,0.7,4.3,1.9,6.5,3.1c0.4,1.4,0.9,2.8,1.5,4.2
			c-3.1-2-6.7-3.2-10.2-4.3c4.6,2.4,9.3,6.4,13.1,10.4c-1.1-0.1-2.2,0-3.4,0.1c0.1-0.2,0-0.4-0.2-0.5c-0.7-0.1-1.3-0.3-1.9-0.5
			c-0.9-0.4-1.8-0.9-2.6-1.4c0,0,0,0,0.1,0.1c-2.2-1.7-4.5-3.5-6.3-5.7c-0.4-0.5-0.8-1-1.2-1.6c-0.2-0.3-0.8,0-0.5,0.3
			c0.6,0.8,1.2,1.6,1.9,2.4c1.4,1.5,3,2.8,4.6,4.1c1.6,1.3,3.4,2.5,5.5,2.9c-0.6,0.1-1.2,0.3-1.8,0c-6.4-1.7-11.3-7.5-11.8-14.2
			C37.3,20.7,39.6,21,41.8,21.6z M40.6,44.1c2.9-1.2,6.2-1.1,9.2-0.5c-0.9,0.7-1.5,1.7-2.4,2.4c-0.7,0.5-0.3,1.6,0.2,2
			c0.6,0.4,1.3,0.7,1.9,1c1.2,0.6,2.3,1.3,3.4,1.9c-5.6-0.2-11.4-1.8-15.5-5.8c-0.4-0.4-1-0.9-0.7-1.4c5.1-5.4,13.4-7.6,20.5-5.4
			c-1.8,0.8-3.5,1.9-5,3.1c-4.1-0.9-8.4,0.3-11.9,2.4C40.3,44,40.4,44.2,40.6,44.1z M22.9,46.5c3.7-1.1,7.8-1.2,11.4,0.3
			c0.6,0.3,1.2,0.7,1.8,0.8c0.9,0.8,1.9,1.5,2.9,2.1c-3.5,1-6.8,2.6-9.6,4.9c-3.8-1.4-7.6-3.7-9.7-7.3c-1.5-2.3,1.9-3.9,3.4-5.1
			c2-1.5,4.2-2.6,6.4-3.7c2,1,4.3,1.7,6.5,1.8c-0.9,0.8-1.9,1.9-2,3.2c-3.9-1.1-7.7,1-11.2,2.6C22.6,46.2,22.7,46.5,22.9,46.5z
			 M43.3,36.1c0.1,0,0.1,0.1,0.2,0.1c0,0-0.1,0-0.1,0C43.4,36.1,43.3,36.1,43.3,36.1z M26.4,24.5c2.1-0.5,4.3-0.4,6.4,0
			c0.6,1.8,1.4,3.6,2.5,5.2c-2.9-1.5-6.2-2-9.5-2.2c-0.3,0-0.3,0.4-0.1,0.4c5.6,1.4,10.7,5.3,14.5,9.6c-0.9,0.5-1.8,1-2.6,1.6
			c-6.7-2-13.3-5.9-16.2-12.6C23.1,25.6,24.8,24.9,26.4,24.5z M10.6,36.6c2.1-3.4,5.1-6.2,8.9-7.5c1.1,2,2.4,3.8,4.1,5.4
			c-3.9-0.1-7.7,1.5-10.9,3.7c-0.2,0.1,0,0.4,0.2,0.3c3.8-1.9,8.3-1.9,12.3-0.9c-2.9,1.6-5.7,3.4-7.9,5.9c-2.1-1.2-4.3-2.1-6.2-3.6
			C9.2,38.8,9.4,38.3,10.6,36.6z M9,50.6c0-0.4-0.5-0.6-0.8-0.8c0,0,0,0,0.1,0.1c-0.2-0.1-0.3-0.2-0.5-0.4l0,0c0,0,0-0.1,0,0
			c-0.2-0.2-0.1-0.5-0.4-0.6c-0.2-0.1-0.5,0.1-0.5,0.4c0.1,0.6,0.7,1,1.2,1.4c0,0,0,0-0.1-0.1c0.2,0.1,0.3,0.3,0.5,0.4
			C8.3,51,8,51.3,7.7,51.7c-0.4-0.3-1-0.7-1.2-1.1c-0.2-0.3-0.4-0.6-0.6-0.9c-0.2-0.3-0.8,0-0.5,0.3c0.5,0.9,1.2,1.8,2.1,2.1
			c-0.4,0.9-0.2,1.9,0.1,2.8c-2.1-2.5-3.8-5.6-4.7-8.7c-0.1-1.3,4.8-3.9,6-4.4c0.3,0.2,0.5,0.4,0.8,0.5c-1.1,0-2.8,0.8-3.6,1.6
			c-0.2,0.3-0.9,1.2-0.3,1.4c0.5,0.1,0.4-0.8,1.1-1.3c0,0,0,0,0,0C7.2,44,7.8,43.7,8,43.6c0.5-0.2,1.1-0.4,1.7-0.6
			c0.2-0.1,0.3-0.4,0.1-0.5c0.6,0.4,1.2,0.7,1.9,1.1c-0.5,0-3.6,0.7-3.2,1.5c0.1,0.2,0.3,0.2,0.4,0.1c0.7-0.5,1.4-0.8,2.3-0.9
			c0,0,0,0,0,0c0.3-0.1,1.1,0.1,1-0.5c1.3,0.7,2.8,1.3,4.2,1.5c-0.1,0.7-0.1,1.3,0.1,2c-3.4-1.4-7.3-1.1-10.7,0.3
			c-0.1,0-0.1,0.3,0,0.2c2.6-0.2,5.2,0.6,7.7,1.5C11.9,49.4,10.4,49.8,9,50.6z M26.2,57.8c-4.4,0.7-9.4,0.6-13.2-1.9
			c-0.2-0.1-0.3,0.1-0.2,0.3c2.9,3,6.9,5,11.1,4.8c-1.1,1.4-0.1,2.4,1.2,3.1c-6.5,0-13-4.1-14.7-10.5c0.1-0.7,2.8-1.1,3.5-1.3
			c1.1-0.3,2.3-0.5,3.5-0.5c0.8,0,1.6,0.2,2.3,0.1c0.1,0.1,0.2,0.2,0.2,0.2c-0.3,0.3-0.7,0.5-1.1,0.7c0,0,0,0,0,0
			c-0.2,0.1-0.4,0.2-0.7,0.2c-0.4,0.1-0.2,0.7,0.2,0.6c0.7-0.2,1.5-0.6,2-1.2c2.2,1.8,4.7,3.2,7.4,3.8
			C27.2,56.7,26.7,57.2,26.2,57.8z M42,63.9c-5.1,1-10.7,1-15.2-2c3.8-5.1,9.3-9.1,15.6-10.4c1.7,0.7,3.5,1.2,5.4,1.3
			c-3,2.9-6.7,5.1-10.6,6.7c-1.5,0.5-3,0.9-4.5,1.2c-0.1,0-0.1,0.2,0,0.2c4.1,0.3,8.3-0.3,12-2.2C43.6,60.3,42.7,62,42,63.9z
			 M44.2,65.8c1.2-4.2,3.5-8.1,7-10.7c-1.4,1.2-2.6,2.6-3.6,4.1c-0.1,0.1,0,0.4,0.1,0.4c0.5,0.2,0.7-0.7,1-1c0,0,0,0-0.1,0.1
			c1.1-1.5,2.4-2.9,3.9-4c0.4-0.3,0.9-0.6,1.3-0.9c0.2-0.1,0.2-0.4,0-0.5c0.7-0.4,1.4-0.6,2.1-0.8c0.1,0.1,0.3,0.1,0.4,0.2
			c-1.9,3.8-4.3,7.5-7.9,10c-0.7,1.3,5-2.6,5.2-2.9c-0.1,0.3,0.2,0.6,0.5,0.4c0.3-0.3,0.7-0.5,1-0.8c-0.2,1.3-0.3,2.7-0.6,4
			C51.6,65.6,47.8,66.7,44.2,65.8z M55.4,58.4c-0.1,0.3-0.1,0.5-0.1,0.8c-0.2-0.4-0.6-0.1-0.9,0.1C54.8,59,55.1,58.7,55.4,58.4z
			 M67.4,55.3c0.1-1.6,0-3.5-0.8-4.9c1.1-1.4,1.8-3.2,1.8-5c0.2-1.1,0.1-2.4-0.1-3.5l3.7,0.3l-4,24.1l-9.8,6.6L50,72.5l1.1-4.1
			c0.2-0.3,0.5-0.5,0.7-0.8c0.8-0.3,1.5-0.7,2.2-1.2c0,0.7,0.6,1.4,1.3,1.3C61.6,67.2,67.1,61.8,67.4,55.3z M58,59.2
			c0.1,0.2,0.5,0.2,0.6-0.1c0.1-0.7,0.2-1.3,0.5-1.9c0.4-1,1-1.9,1.7-2.7c0.3-0.3-0.2-0.7-0.5-0.4c-0.8,0.9-1.5,1.9-1.9,3
			c0.4-1.4,1.1-2.7,2.2-3.7c0.8,0,1.6-0.1,2.3-0.4c-0.2,1-0.4,2-0.7,3c-0.1-0.1-0.4-0.1-0.5,0.1c-0.3,0.6-0.6,1.1-0.9,1.7
			c-0.2,0.4,0.4,0.7,0.6,0.3c0.1-0.2,0.3-0.5,0.4-0.7c-0.5,1.3-1.3,2.5-2.2,3.6c-0.3,1,2-1.4,2.1-1.6c1.1-1.2,2.2-2.6,3-4
			c-0.3,4.3-3.5,8-7.6,9.2c0.4-1.8,0.5-3.7,0.8-5.6C57.9,59.1,57.9,59.2,58,59.2z M65.3,41.7c0.1,0.2,0.1,0.4,0.2,0.6
			c-2.9,2.8-7,4.7-11.1,3.9c-0.2,0-0.2,0.2-0.1,0.2c3.5,1.5,7.8,1.6,11.1-0.4c-0.1,0.6-0.1,1.4-0.2,2c-1,1.5-2.5,2.6-4.3,2.7
			c-4,0.3-7.1-2.8-10.6-4.4c1.8-2.2,4-4,6.5-5.4c-1.1,0.7-2.1,1.5-3.1,2.2c-0.1,0.1-0.2,0.3-0.1,0.4c0.1,0.1,0.3,0.2,0.4,0.1
			c0.8-0.5,1.6-1.1,2.4-1.7c0.6-0.4,1.3-0.8,2-1.2c0,0,0,0,0,0c0.6-0.3,1.2-0.5,1.9-0.6c0,0-0.1,0-0.1,0c0.6-0.2,1.2,0,1.8-0.1
			c0.6-0.8-0.9-0.6-1.3-0.6C62.6,39.1,64.5,39.8,65.3,41.7z M61.3,28.1c1,1,1.8,2.2,2.4,3.6c0.1,0.1,0,0.2,0.2,0.3
			c-0.1,0.6-0.2,1.1-0.4,1.6c-0.4-4.5-4.6-6.5-8.2-8.1c-0.2-0.1-0.5,0.2-0.2,0.4c2.6,2,5.3,5,5.5,8.4c-0.3-0.2-0.6-0.4-0.9-0.6
			c0,0,0,0,0.1,0.1c-1.4-1-2.6-2.2-3.7-3.5l0,0c-0.8-1-1.6-2.2-2.2-3.3c-0.1-0.1-0.1-0.3-0.3-0.3c-0.3-0.1-0.5,0.2-0.3,0.5
			c0.3,0.6,0.7,1.2,1.1,1.8c1.6,2.5,3.7,4.6,6.2,6.1c-5.3-1.2-9.2-8.1-9.8-13.2c5.6-0.1,12.7,2.5,13.3,8.9c-0.5-1.2-1.3-2.2-2.2-3.1
			C61.5,27.3,61,27.8,61.3,28.1z"/>
		<path d="M81.4,64.5c-5.3,0-9.7,4.2-9.7,9.5l1.2,0c0.4-11.1,16.6-11,16.8,0.1l1.2,0C91.1,69,86.5,64.4,81.4,64.5z"/>
		<polygon points="88.4,52.9 92.9,43.5 77.6,41.8 82.1,52.1 		"/>
		<polygon points="76.6,42.4 74.7,42.3 72.8,51.2 80.9,52.1 		"/>
		<polygon points="82.4,53.2 97.8,64.5 88.9,54.2 		"/>
		<path d="M93,71.8l1.2,1.1l2.8-7.1l-2,0.2C92,66.2,90.8,69.8,93,71.8z"/>
		<path d="M72.1,56.7c0.3,0,10.7,0.5,11.2,0.5c0.2,0,0.4-0.2,0.4-0.4c0-0.2-0.2-0.4-0.4-0.4c-0.1,0-10.9-0.5-11.1-0.5
			C71.7,55.9,71.6,56.6,72.1,56.7z"/>
		<path d="M71.7,58.6c0.3,0,14.3,0.8,14.6,0.8c0.2,0,0.4-0.2,0.4-0.4c0-0.2-0.2-0.4-0.4-0.4c-0.1,0-14.3-0.8-14.5-0.8
			C71.4,57.8,71.3,58.5,71.7,58.6z"/>
		<path d="M71.3,60.5c0.3,0,17.2,0.9,18,0.9c0.2,0,0.4-0.2,0.4-0.4c0-0.2-0.2-0.4-0.4-0.4c-0.2,0-17.7-0.9-17.9-0.9
			C71,59.7,70.9,60.4,71.3,60.5z"/>
		<path d="M71,62.5c0.3,0,20.8,1,21.8,1.1l0-0.8c-0.2,0-21.5-1.1-21.7-1.1C70.6,61.7,70.5,62.4,71,62.5z"/>
		<path d="M65.5,70.5c0.7,0,6.2,0,6.3,0c0.2,0,0.4-0.2,0.4-0.4c0-0.2-0.2-0.4-0.4-0.4c-0.1,0-4.1,0-6.2,0
			C65.2,69.8,65.1,70.4,65.5,70.5z"/>
		<path d="M64,71.8c0.7,0,6.9-0.1,7,0c0.2,0,0.4-0.2,0.4-0.4c0.3-0.7-4.8-0.2-7.3-0.3C63.6,71.1,63.6,71.7,64,71.8z"/>
		<path d="M62.4,73c0.8,0,7.5-0.1,7.6-0.1c0.2,0,0.4-0.2,0.4-0.4c0.3-0.8-5.2-0.2-7.9-0.3C62,72.3,62,72.9,62.4,73z"/>
		<path d="M60.3,74.3c0.9,0,8.9-0.1,9-0.1c0.2,0,0.4-0.2,0.4-0.4c0-0.2-0.2-0.4-0.4-0.4c-0.1,0-8.9,0.1-8.9,0.1
			C60,73.5,59.9,74.2,60.3,74.3z"/>
		<path d="M38.4,26.9C38.4,26.9,38.4,26.9,38.4,26.9C38.4,26.9,38.4,26.9,38.4,26.9C38.4,26.9,38.4,26.9,38.4,26.9z"/>
		<path d="M38.4,26.9C38.4,26.9,38.4,26.9,38.4,26.9C38.4,26.9,38.4,26.9,38.4,26.9z"/>
		<path d="M41.7,28.7c1.5,1.3,3.1,2.4,4.8,3.3c0.4,0.1,1.7,1.1,1.9,0.6c0.1-0.1,0-0.4-0.1-0.4c-1.5-0.7-2.9-1.5-4.3-2.4
			c0,0,0,0,0.1,0.1c-0.7-0.5-1.3-1-1.9-1.5C41.8,28,41.4,28.4,41.7,28.7z"/>
		<path d="M43.8,28.6c0.5,0.6,1.2,1.1,2,1.4c0.3,0.1,0.8,0.6,1.1,0.2c0.1-0.1,0-0.4-0.1-0.4c-0.6-0.3-1.3-0.6-1.8-1c0,0,0,0,0.1,0.1
			c-0.3-0.2-0.7-0.7-1-0.8C43.7,28.1,43.6,28.4,43.8,28.6z"/>
		<path d="M44.2,25c1.2,0.3,2.5,0.7,3.5,1.4c0.3,0.2,0.5,0.6,0.9,0.3c0.1-0.1,0.1-0.3,0-0.5c-1.2-1.1-2.7-1.5-4.2-1.9
			C43.9,24.3,43.8,24.9,44.2,25z"/>
		<path d="M56,30.2C56,30.2,56,30.2,56,30.2C56,30.2,56,30.2,56,30.2z"/>
		<path d="M58.6,31.8c0.3,0.2,0.6,0.6,1,0.7c0.3,0,0.4-0.4,0.2-0.6c-0.9-0.7-1.7-1.4-2.5-2.2c-0.3-0.2-0.7-1-1.1-0.6
			C55.6,29.5,58.2,31.4,58.6,31.8z"/>
		<path d="M62.2,29.1C62.2,29.1,62.2,29.1,62.2,29.1C62.2,29.1,62.2,29.1,62.2,29.1z"/>
		<path d="M58.4,40.7C58.4,40.7,58.4,40.7,58.4,40.7L58.4,40.7z"/>
		<path d="M58.1,42.2C58.1,42.2,58.1,42.2,58.1,42.2C58.1,42.3,58.1,42.3,58.1,42.2z"/>
		<path d="M56.8,42.9c1.2-0.8,2.6-1.3,4.1-1.6c0.5,0.5,0.8-0.7,0.2-0.7c-1.3,0.2-2.5,0.6-3.7,1.2c-0.3,0.2-0.6,0.3-0.9,0.5
			C56.1,42.6,56.5,43.2,56.8,42.9z"/>
		<path d="M62.2,42.9c-0.5,0.4-1.1,0.7-1.7,1c0,0,0,0,0,0c-1.2,0.6-2.6,0.9-3.9,1.1c0,0,0,0,0,0c-0.2,0-0.4,0.1-0.3,0.3
			c0,0.2,0.2,0.3,0.3,0.3c1.2-0.2,2.3-0.4,3.5-0.9c1-0.4,2-0.9,2.8-1.7c0.3-0.3,1.6-1.5,1-1.8c-0.2-0.1-0.3,0-0.4,0.1
			C63.2,42,62.6,42.6,62.2,42.9z"/>
		<path d="M60.5,43.9L60.5,43.9C60.5,43.9,60.5,43.9,60.5,43.9z"/>
		<path d="M59.2,42.7c-0.3,0.2-0.9,0.2-0.8,0.6c0.1,0.2,0.2,0.3,0.4,0.2c0.7-0.3,1.5-0.5,2.2-0.8c0.3-0.2,0.9-0.2,0.8-0.6
			c-0.1-0.2-0.2-0.3-0.4-0.2C60.6,42.2,59.9,42.5,59.2,42.7z"/>
		<path d="M59.7,48.5c1.8,0,3.6-0.6,5.2-1.5c0.3-0.2,0-0.8-0.3-0.5c-0.3,0.2-0.7,0.4-1.1,0.6c0,0-0.1,0,0,0
			c-0.8,0.3-1.6,0.6-2.4,0.7c0,0,0,0,0,0c-0.5,0.1-1,0.1-1.5,0.1C59.2,47.9,59.2,48.6,59.7,48.5z"/>
		<path d="M64.2,48c-0.8,0.4-1.5,0.8-2.4,1.1c-0.3,0.2-1,0.2-0.9,0.7c0.1,0.2,0.2,0.3,0.4,0.2c0.9-0.3,1.7-0.6,2.5-1.1
			c0.2-0.1,0.5-0.2,0.7-0.4C64.9,48.4,64.6,47.8,64.2,48z"/>
		<path d="M44.6,41c0.8-0.2,1.6-0.4,2.4-0.6c0,0,0,0,0,0c1.1-0.2,2.3-0.3,3.5-0.2c0.6,0.1,1.1,0.2,1.6,0.3c0.2,0.1,0.4-0.1,0.4-0.2
			c0-0.2-0.1-0.3-0.2-0.4c-2-0.6-4.2-0.4-6.2,0c-0.6,0.1-1.1,0.3-1.7,0.4c-0.2,0-0.3,0.2-0.2,0.4C44.3,40.9,44.4,41,44.6,41z"/>
		<path d="M47.5,39.1c0.1,0.1,0.1,0.1,0.2,0.1c0.8-0.1,1.6-0.2,2.4-0.2c0.8,0,1.5,0.1,2.2,0.3c0.4,0.1,0.5-0.5,0.1-0.6
			C52.1,38.5,46.6,37.9,47.5,39.1z"/>
		<path d="M43.5,44.4c0.3-0.1,0.6-0.2,1-0.2c0,0-0.1,0-0.1,0c0.9-0.2,1.8-0.2,2.7-0.1c0.4,0,1,0.3,1.1-0.1c0.1-1-4.3-0.4-4.9-0.2
			C42.9,43.9,43.1,44.5,43.5,44.4z"/>
		<path d="M47.6,44.8c-0.9-0.3-1.9-0.1-2.9,0.1c-0.4,0.1-0.2,0.7,0.2,0.6c0.2-0.1,0.4-0.1,0.6-0.1l-0.1,0c0.6-0.1,1.3-0.1,1.9-0.1
			C47.7,45.4,47.8,45,47.6,44.8z"/>
		<path d="M40.7,47.6c1.2,0.4,8.3,3.6,8.8,2.1c0-0.2-0.2-0.3-0.3-0.3c-0.4,0-0.7,0-1.1,0c-1.6-0.2-3.1-0.9-4.6-1.4l0,0
			c0,0-0.1,0-0.1,0l0,0c-0.8-0.3-1.6-0.6-2.4-0.9c-0.1,0-0.2-0.1-0.2,0C40.5,47.1,40.5,47.5,40.7,47.6z"/>
		<path d="M45.2,47.3C45.2,47.3,45.2,47.3,45.2,47.3c0,0-0.1-0.1-0.2-0.2c-0.3-0.3-0.7,0.2-0.4,0.5c0.5,0.5,1.3,0.8,2,1
			c0.4,0,0.9,0.6,1.2,0.1c0.1-0.1,0-0.4-0.1-0.4C46.8,47.9,45.9,47.8,45.2,47.3z"/>
		<path d="M43,46.7c1-0.1,1.9-0.2,2.9-0.2c0.4-0.1,1.1,0.2,1.1-0.4c0-0.2-0.2-0.3-0.3-0.3c-1,0-1.9,0.1-2.9,0.1
			c-0.4,0.1-1.1-0.1-1.1,0.4C42.7,46.6,42.8,46.7,43,46.7z"/>
		<path d="M38.8,57.1C38.8,57.1,38.8,57.1,38.8,57.1C38.8,57.1,38.8,57.1,38.8,57.1z"/>
		<path d="M38.8,57.1C38.8,57.1,38.8,57.1,38.8,57.1C38.8,57.1,38.8,57.1,38.8,57.1z"/>
		<path d="M34.2,59.5c0.2,0.1,0.4,0.1,0.5-0.1c3.2-1,6.2-2.4,8.9-4.3c0.7-0.5,1.5-1,2.2-1.5c0.2-0.1,0.6-0.3,0.4-0.6
			c-0.1-0.1-0.3-0.2-0.4-0.1c-2.5,1.6-4.9,3.5-7.8,4.6c-1.2,0.5-2.3,0.9-3.5,1.3c-0.2,0.1-0.5,0.1-0.5,0.4
			C34,59.3,34.1,59.4,34.2,59.5z"/>
		<path d="M38.8,57.1C38.8,57.1,38.8,57.1,38.8,57.1L38.8,57.1z"/>
		<path d="M38.8,55.8c1.8-0.7,3.4-1.8,5-2.8c0,0,0,0,0,0c0.1,0,0.2-0.1,0.3-0.1l0,0c0.4,0,0.3-0.7-0.1-0.6c-0.8,0.1-1.4,0.8-2.1,1.2
			c-0.9,0.6-1.7,1.1-2.7,1.5c-0.3,0.2-0.6,0.2-0.8,0.4C38.2,55.5,38.5,55.9,38.8,55.8z M44,52.8L44,52.8C43.9,52.8,44,52.8,44,52.8z
			 M39.4,54.8C39.4,54.8,39.4,54.8,39.4,54.8L39.4,54.8z"/>
		<path d="M43.7,52.9C43.7,52.9,43.7,52.9,43.7,52.9C43.7,52.9,43.7,52.9,43.7,52.9z"/>
		<path d="M38.7,53.9c0.2,0.1,0.4,0,0.5-0.2c0,0,0,0,0,0c0.7-0.5,1.6-0.8,2.3-1.2c0,0,0,0,0,0c0.2-0.1,0.5-0.2,0.6-0.4
			c0.1-0.2-0.1-0.6-0.4-0.5C41.3,52.1,37.7,53.1,38.7,53.9z M39.3,53.6C39.3,53.6,39.3,53.6,39.3,53.6L39.3,53.6z"/>
		<path d="M39.2,53.7C39.2,53.7,39.2,53.7,39.2,53.7C39.2,53.7,39.2,53.7,39.2,53.7C39.2,53.7,39.2,53.7,39.2,53.7z"/>
		<path d="M52,55.2C52,55.3,52,55.3,52,55.2C52,55.3,52,55.3,52,55.2z"/>
		<path d="M52,55.2C52,55.2,52,55.2,52,55.2C52,55.2,52,55.2,52,55.2z"/>
		<path d="M53.1,56C53,56,53.1,56,53.1,56L53.1,56z"/>
		<path d="M50.2,58.4c0.1,0.1,0.3,0.1,0.5,0c0.7-0.8,1.4-1.6,2.2-2.2c0.2-0.3,0.6-0.4,0.8-0.7c0-1.4-2.6,1.5-2.9,1.8
			C50.6,57.6,49.9,58,50.2,58.4z"/>
		<path d="M53.1,55.9C53.1,55.9,53.1,56,53.1,55.9C53.1,56,53.1,55.9,53.1,55.9z"/>
		<path d="M53,56.6c-0.6,0.6-1.2,1.2-1.8,1.8c-0.1,0.1-0.1,0.3,0,0.5c0.1,0.1,0.3,0.1,0.5,0c0.6-0.6,1.2-1.2,1.8-1.8
			C53.7,56.8,53.3,56.3,53,56.6z"/>
		<path d="M59.9,57.8c0.1,0.1,0.4,0,0.4-0.1c0.3-0.6,0.6-1.2,0.8-1.8c0.1-0.2,0-0.4-0.1-0.4c-0.2-0.1-0.4,0-0.4,0.1
			c-0.3,0.6-0.6,1.2-0.8,1.8C59.7,57.5,59.7,57.7,59.9,57.8z"/>
		<path d="M54.4,62.1c0.3-0.3-0.2-0.7-0.5-0.4c-0.4,0.4-1.1,1.1-1.5,1.3c-0.7,0.6-1.6,1.1-2.4,1.5c0,0,0,0,0,0
			c-0.6,0.3-1.3,0.5-2,0.6c0,0,0.1,0,0.1,0c-0.4,0.2-1.5-0.1-1.5,0.4c0,0.2,0.2,0.3,0.3,0.3C49.9,65.9,52.5,64.2,54.4,62.1z"/>
		<path d="M51,63.1c1,0.1,1.9-0.9,2.6-1.5c0.3-0.3-0.2-0.7-0.5-0.4c-0.2,0.3-0.5,0.5-0.8,0.7c-0.1,0.1-0.5,0.4-0.8,0.5
			c-0.2,0.1-0.6,0.1-0.7,0.3C50.8,62.8,50.8,63,51,63.1z"/>
		<path d="M22.6,48.7c-0.3-0.2-0.4-0.9-0.9-0.7c-0.1,0.1-0.2,0.3-0.1,0.4c1.1,1.6,2.6,3,4.3,4c0.4,0.3,4.1,2.2,4.2,1.4
			c0-0.2-0.1-0.3-0.2-0.4c-0.5-0.1-1-0.3-1.4-0.5c-1.1-0.4-2.2-1-3.2-1.7c0,0,0,0,0.1,0.1c-0.9-0.7-1.8-1.5-2.5-2.4c0,0,0,0,0,0
			C22.7,48.8,22.6,48.7,22.6,48.7z"/>
		<path d="M26.8,50.8c1.3,0.7,2.7,1.7,4.2,1.7c0.2-0.1,0.2-0.5-0.1-0.6c-0.5-0.1-0.9-0.2-1.3-0.3c-1.1-0.5-2.2-1-3.1-1.8
			c-0.1-0.1-0.2-0.1-0.2-0.1C25.4,50,26.5,50.6,26.8,50.8z"/>
		<path d="M30,50.1c1.4,0.4,2.8,0.4,4.3,0.1c0,0,0,0,0,0c0.3-0.1,0.9,0.1,0.9-0.4c0-0.2-0.2-0.3-0.3-0.3c-0.3,0-0.7,0.1-1,0.1l0.1,0
			c-1.4,0.2-3.2,0.3-4.3-0.5c-0.3-0.3-0.7,0.2-0.4,0.5C29.4,49.8,29.7,50,30,50.1z"/>
		<path d="M30,47.5c0.9,0.1,1.8,0.1,2.6,0.1c0,0-0.1,0-0.1,0c0.3,0,0.7,0.3,1,0.1c0.2-0.1,0.2-0.5-0.1-0.6c-1-0.3-2-0.1-3-0.3
			c-0.2,0-0.4-0.1-0.6,0C29.7,47.1,29.7,47.5,30,47.5z"/>
		<path d="M25.7,41.7c0.2,0.1,0.4,0,0.5-0.2c1-0.6,1.9-1.4,2.9-1.9l0,0c0.7-0.2,0.5-0.8,0.1-0.7c-1.1,0.4-2.1,1.2-3.1,1.9
			C25.8,41,25.3,41.4,25.7,41.7z"/>
		<path d="M27.8,41.3c-1.3,0.6-0.3,1.3,0,0.7c0.6-0.4,1.6-0.9,2.1-1.1c0.3-0.1,0.6-0.3,0.9-0.4c0.2,0.1,0.5-0.2,0.4-0.4
			c-0.2-0.4-0.7-0.2-0.9,0C29.5,40.4,28.6,40.8,27.8,41.3z M27.3,41.7C27.3,41.7,27.3,41.7,27.3,41.7C27.3,41.7,27.3,41.7,27.3,41.7
			C27.3,41.7,27.3,41.7,27.3,41.7z M27.7,42.1C27.7,42.1,27.7,42.1,27.7,42.1C27.7,42.1,27.7,42.1,27.7,42.1z M30.9,40.5
			C30.9,40.5,30.9,40.5,30.9,40.5C30.9,40.5,30.9,40.5,30.9,40.5z M30.7,40.3L30.7,40.3C30.7,40.3,30.7,40.3,30.7,40.3z M30.6,40.2
			C30.6,40.2,30.6,40.2,30.6,40.2C30.6,40.2,30.6,40.2,30.6,40.2L30.6,40.2z"/>
		<path d="M29.9,42.2C29.9,42.2,29.9,42.2,29.9,42.2c-0.4,0.1-0.9,0.1-1.5,0.1c-0.1,0-0.2,0.1-0.2,0.1c-0.5,1,1.9,0.4,2.3,0.4
			c1-0.2,2-0.6,3-1.1c0.2-0.1,0.3-0.2,0.2-0.4c-0.1-0.2-0.2-0.3-0.4-0.2C32.2,41.6,31.1,42,29.9,42.2z"/>
		<path d="M29.4,34.3c2.5,1.9,5.2,3.4,8.2,4.1c0.3,0.1,0.7,0.2,0.8-0.1c0-0.2-0.1-0.3-0.2-0.4c-0.7-0.1-1.4-0.3-2-0.6
			c-2.2-0.7-4.2-1.9-6-3.2c0,0,0,0,0.1,0.1c-1.7-1.3-3.4-2.7-4.9-4.2c-0.3-0.3-0.7,0.2-0.4,0.5C26.3,31.8,27.8,33.1,29.4,34.3z"/>
		<path d="M31.7,34c1.8,1.1,3.7,2,5.7,2.5c0.4,0.1,0.5-0.5,0.2-0.6c-1.7-0.4-3.3-1.1-4.8-2c-0.3-0.2-0.5-0.3-0.8-0.5
			C31.7,33.2,31.4,33.8,31.7,34z"/>
		<path d="M33.2,33.1c0.8,0.3,1.6,0.6,2.3,1c0.4,0.2,0.7-0.4,0.3-0.6c-0.6-0.2-2.2-1.1-2.7-1C32.8,32.7,32.9,33,33.2,33.1z"/>
		<path d="M28.1,26.4c0.1,0.1,0.1,0.1,0.2,0.1c0.5-0.1,0.9-0.1,1.4,0c1.2,0.2,2.3,0.4,3.4,0.8c0.4,0.5,0.9-0.4,0.3-0.6
			C33,26.4,27.3,24.9,28.1,26.4z"/>
		<path d="M29.6,24.7c0.2,0.1,0.4,0.1,0.6,0.1c0.8,0.1,1.5,0.2,2.3,0.5c0.2,0.1,0.4-0.1,0.4-0.2c0.2-0.6-1.9-0.8-2.3-0.9
			c-0.3,0-0.7-0.2-0.9,0C29.5,24.3,29.5,24.6,29.6,24.7z"/>
		<path d="M32.2,27.5c-0.4-0.1-0.6,0.5-0.2,0.6c0.5,0.1,1,0.2,1.5,0.3c0.2,0,0.4-0.1,0.4-0.2C34.1,27.7,32.5,27.6,32.2,27.5z"/>
		<path d="M14.1,34.1c0.2,0,0.5-0.1,0.5-0.3c0.9-0.8,2-1.5,3.1-2c0.4-0.2,1.4-0.6,2-0.7c0.4-0.1,0.2-0.7-0.2-0.6
			c-0.8,0.2-1.6,0.5-2.4,0.9C16.7,31.5,12.6,33.8,14.1,34.1z"/>
		<path d="M15,33.4C15,33.4,15,33.4,15,33.4C15,33.4,15,33.4,15,33.4z"/>
		<path d="M15,33.4L15,33.4C15,33.4,15,33.4,15,33.4z"/>
		<path d="M19.7,31.6c-0.8,0.1-1.6,0.5-2.4,1c-0.4,0.2,0,0.8,0.3,0.5c0.2-0.1,0.6-0.4,0.8-0.4c0.5-0.2,1-0.5,1.6-0.4
			C20.5,32,20.2,31.5,19.7,31.6z M19.7,32.2C19.7,32.2,19.8,32.2,19.7,32.2C19.8,32.2,19.7,32.2,19.7,32.2z"/>
		<path d="M18.5,33.6c0,0.8,1,0.1,1.4,0.1c0,0-0.1,0-0.1,0c0.2,0,0.5-0.1,0.7-0.1c0.4,0,0.4-0.7,0-0.6C20,33,18.7,33.1,18.5,33.6z"
			/>
		<path d="M19,33.9C19,33.9,19,33.9,19,33.9C18.9,33.9,18.9,33.9,19,33.9z"/>
		<path d="M14.5,39.6c0.5-0.3,0.9-0.6,1.4-0.8c0,0,0,0,0,0c0.9-0.4,1.8-0.7,2.7-0.8c0,0-0.1,0-0.1,0c1-0.2,1.9-0.2,2.9-0.1
			c0,0-0.1,0-0.1,0c0.4,0,1,0.4,1.2-0.1c0-0.2-0.1-0.3-0.2-0.4c-1.1-0.2-2.2-0.2-3.3-0.1c-1.1,0.1-2.2,0.4-3.2,0.9
			c-0.4,0.2-2.1,0.8-1.8,1.3C14.1,39.7,14.3,39.7,14.5,39.6z"/>
		<path d="M15.9,38.8C15.9,38.8,15.9,38.8,15.9,38.8C15.9,38.8,15.9,38.8,15.9,38.8z"/>
		<path d="M20.9,38.9c-0.7-0.1-2.6-0.3-3,0.2c-0.1,0.2,0.1,0.5,0.3,0.5c0.7-0.1,1.4-0.2,2.1-0.1c0,0-0.1,0-0.1,0
			c0.3,0,0.9,0.3,1-0.1C21.2,39.1,21.1,38.9,20.9,38.9z M18.5,39.5C18.5,39.5,18.5,39.5,18.5,39.5C18.5,39.5,18.5,39.5,18.5,39.5z"
			/>
		<path d="M18.6,40.9c-0.4-0.2-2.3-0.6-2.3,0.1c0.1,0.5,0.8,0.2,1.2,0.3c0.4,0,0.9,0.3,1.2,0.2C19,41.3,18.9,40.9,18.6,40.9z"/>
		<path d="M24.9,56.1c-0.9,0.2-1.8,0.4-2.6,0.6c0,0,0,0,0,0C20.2,57,18,57,16.2,55.8c-0.3-0.2-0.7,0.4-0.3,0.6
			c2.1,1.4,4.8,1.3,7.2,0.8c0.7-0.1,1.3-0.3,2-0.5C25.5,56.6,25.3,56,24.9,56.1z"/>
		<path d="M21.7,55.6C21.7,55.6,21.7,55.6,21.7,55.6C21.7,55.6,21.7,55.6,21.7,55.6z"/>
		<path d="M19.7,55.8c-0.2,0-0.3,0.2-0.3,0.3c0,0.2,0.2,0.3,0.3,0.3c1-0.1,2-0.2,3-0.4c0.2,0,0.3-0.2,0.2-0.4c-0.2-0.5-0.9,0-1.2,0
			c0,0,0,0,0,0C21.1,55.7,20.4,55.8,19.7,55.8z"/>
		<path d="M18.9,54.7c0.8,0.3,1.8-0.1,2.5-0.5c0.4-0.2,0-0.8-0.3-0.5c-0.1,0.1-0.3,0.2-0.4,0.2c0,0,0,0,0,0
			c-0.3,0.1-0.6,0.2-0.8,0.3c0,0,0.1,0,0.1,0c-0.3,0-0.6,0.1-0.8,0C18.9,54.2,18.7,54.5,18.9,54.7z"/>
		<path d="M20.7,53.9L20.7,53.9C20.8,53.9,20.7,53.9,20.7,53.9z"/>
		<path d="M18.8,52.8C18.8,52.7,18.8,52.7,18.8,52.8C18.8,52.7,18.8,52.7,18.8,52.8z"/>
		<path d="M18.8,52.8L18.8,52.8L18.8,52.8z"/>
		<path d="M16.6,61.1c1.4,1,3,1.5,4.7,1.6c0.4,0,1.7,0.3,1.7-0.3c0-0.2-0.2-0.3-0.3-0.3c-1.3,0.1-2.6-0.1-3.8-0.6
			c-0.7-0.3-1.3-0.6-1.9-1c-0.1,0-0.2-0.1-0.2,0C16.4,60.6,16.4,61,16.6,61.1z"/>
		<path d="M20.2,61.3c0.4,0.2,2.5,0.8,2.5,0c-0.1-0.5-0.7-0.2-1-0.3c-0.5,0-0.9-0.3-1.4-0.3C20,60.8,20,61.2,20.2,61.3z"/>
		<path d="M42.9,60.6c-0.3-0.4-0.7,0.1-1,0.2c-0.8,0.4-1.7,0.6-2.6,0.7l0.1,0c-1.1,0.2-2.2,0.2-3.3,0.3c-0.4,0.1-1.2-0.2-1.2,0.4
			c0,0.2,0.2,0.3,0.3,0.3c1,0,2,0,3-0.1C38.9,62.4,43.4,61.5,42.9,60.6z"/>
		<path d="M41.5,62.3c-0.1,0-0.2,0.1-0.3,0.1c-0.3,0.1-0.7,0.3-1.1,0.3c0,0,0.1,0,0.1,0c-0.5,0.1-1.1,0-1.6,0.1
			c-0.2,0.1-0.2,0.5,0.1,0.6c1.1,0.2,2.2-0.1,3.1-0.6C42.2,62.6,41.9,62.1,41.5,62.3z"/>
		<path d="M41.2,62.4C41.2,62.4,41.2,62.4,41.2,62.4C41.2,62.4,41.2,62.4,41.2,62.4z"/>
		<path d="M38,70.9c1.4,0,2.8-0.5,4-1.2c0.3-0.3,1-0.6,1.1-1c-0.1-0.5-0.6-0.2-0.8,0c0,0,0,0,0,0c0,0,0,0,0,0c-1,0.8-2,1.2-3.2,1.5
			l0.1,0c-0.4,0.1-0.8,0.1-1.1,0.1C37.5,70.2,37.6,70.9,38,70.9z"/>
		<path d="M42.8,70.2c0.4,0.5,1.1-0.5,1.5-0.7c0.1-0.1,0.1-0.3,0-0.5c-0.3-0.3-0.6,0.2-0.8,0.4C43.2,69.7,42.6,69.8,42.8,70.2z"/>
		<path d="M36.8,67.6C36.8,67.6,36.8,67.6,36.8,67.6C36.8,67.6,36.8,67.6,36.8,67.6z"/>
		<path d="M37.7,67.4C37.7,67.4,37.7,67.3,37.7,67.4C37.7,67.3,37.7,67.4,37.7,67.4z"/>
		<path d="M37.7,67.4C37.7,67.4,37.7,67.4,37.7,67.4C37.7,67.4,37.7,67.4,37.7,67.4z"/>
		<path d="M34.1,68.1c1.4,0.2,2.9,0.4,4.1-0.3c0.4-0.4-0.1-0.8-0.5-0.5c-0.3,0.1-0.5,0.2-0.8,0.2c0,0,0,0,0,0
			c-0.9,0.2-1.8,0-2.7-0.1C33.8,67.4,33.7,68,34.1,68.1z"/>
		<path d="M9.8,44.7C9.8,44.7,9.8,44.7,9.8,44.7C9.8,44.7,9.8,44.7,9.8,44.7z"/>
		<path d="M9.8,44.7C9.8,44.7,9.7,44.7,9.8,44.7C9.7,44.7,9.7,44.7,9.8,44.7z"/>
		<path d="M12.2,45.7c0.6-0.1,1.2-0.1,1.7,0c0,0-0.1,0-0.1,0c0.2,0,0.6,0.1,0.7-0.2c0-0.2-0.1-0.4-0.2-0.4c-0.4,0-2.5-0.3-2.4,0.3
			C11.8,45.5,12,45.7,12.2,45.7z"/>
		<path d="M6.5,50.6C6.5,50.6,6.5,50.6,6.5,50.6C6.5,50.6,6.5,50.6,6.5,50.6z"/>
		<path d="M7.8,49.4C7.8,49.4,7.8,49.4,7.8,49.4C7.8,49.4,7.8,49.3,7.8,49.4C7.8,49.3,7.8,49.3,7.8,49.4z"/>
	</g>
</g>
</svg>
