<?xml version="1.0" encoding="utf-8"?>
<!-- Generator: Adobe Illustrator 25.4.1, SVG Export Plug-In . SVG Version: 6.00 Build 0)  -->
<svg version="1.1" id="Capa_1" xmlns="http://www.w3.org/2000/svg" xmlns:xlink="http://www.w3.org/1999/xlink" x="0px" y="0px"
	 viewBox="0 0 100 100" style="enable-background:new 0 0 100 100;" xml:space="preserve">
<style type="text/css">
	.st0{fill:#050506;}
</style>
<g>
	<path class="st0" d="M12.8,52.9c0,3.9,5.3,0.3,7.5,1.1c11,1,6.7,1.8,7.2-12.8c0.5-2.4-3.2-1.2-3-0.5c0,3.1,0.6,4-4,3.9L22.3,28
		c0.1-1.7-1.2-2.3-2.9-2.2c-3.6,0.3-4.6,0.5-5.7,0.5c-2.5,1.1-0.5,3.7-0.8,10.3c0,3.7,0,9.3-0.2,11.5c0.1,0,0.1,0,0.1,0.1
		c-0.2,0.1-0.1,0.5,0,0.7C12.7,48.9,12.8,52.8,12.8,52.9z"/>
	<path class="st0" d="M39.4,53.9c11-3.5,7.7-20.9,7-27c-0.2-1.6-5.5-1.9-7.5-1.1c-11.5,2.9-8.5,17.4-6.8,24.6
		C30.7,57.8,36,54.9,39.4,53.9z M37.3,31.4L37.3,31.4C40.7,37.1,43,43.7,40,50h-0.2C37,43.5,35.3,37.1,37.3,31.4z"/>
	<path class="st0" d="M50.4,39.3c0,3.9-0.1,6.9-0.2,8.9c0.1,0,0.1,0,0.1,0.1c-0.2,0.1-0.1,0.5,0,0.7c0,1.2-0.7,5.9,0.9,5.9
		c3.4-2,14.2,1.1,13.9-1.3l-0.3-12.2c0.5-2.4-3.2-1.2-3-0.5c0,3.1,0.6,4-4,3.9l1.8-16.6c0-1.5-0.8-2.2-2.4-2.2
		C46.2,26.3,51.1,26.4,50.4,39.3z"/>
	<path class="st0" d="M83.9,53.7c1.1-0.3,3.5,1.4,3.9-0.6c-0.4-3.7-0.7-6.1-0.9-7.1c-0.7-9.6-1.2-8.8-2.6-18.5
		c-1.2-2.1-4,0.4-6.3-0.2h-2.3c-1.4,0.5-4.9-1.8-5.5,0.5c0,0.6,0.4,3.3,0,4.4c-2.2,9.4-2.3,14-2.4,21.4c0.3,0.5,0.7,0.8,1.2,0.8
		c3.8-0.2,5.3-0.4,6-0.2c2.1,0.2,1.3-4.7,3-5.2C80.5,53.6,76.9,55.1,83.9,53.7z M76.3,42.7c0-1.8,0.6-5.5,1.7-11.3h0.1
		c1.1,5,1.7,7.7,1.7,8.2C78.8,40.3,77.6,41.3,76.3,42.7z"/>
	<path class="st0" d="M20.8,58c-9.2,1.9-7.8-2.8-7.3,10l0,0c0.3-0.1-0.4,3.2,0.6,3.8h1.2c1.2,0,1.8-0.1,1.8-0.4
		c-0.1-1.6-0.6-2.5-0.2-3.5c3.4-1.1,4.9-1.6,4.9-2.4C21,63.5,21.8,60,20.8,58z M17,65.8l0.1-4.8l0,0C17.9,64.1,19.7,64.5,17,65.8z"
		/>
	<path class="st0" d="M31.4,64c0.2-0.7-0.8-3.2-0.9-5.3c-0.6-1-1.9,0.2-3-0.1c-1.1,0-2.1,0-3.3-0.3c-0.8,0.2-0.4,0.9-0.4,1.8
		c-0.9,4.5-1.3,7.5-1.3,11.2c1.1,0.9,3.3-0.1,3.5,0.3c0.9,0.3,0.7-2.2,1.5-2.5c1.2,2.2-0.3,3,2.9,2.3c0.5-0.2,1.7,0.7,1.9-0.3
		C31.9,68.3,31.6,65.4,31.4,64z M26.7,66.1c0-0.9,0.3-2.7,0.8-5.4l0,0c0.6,2.4,0.8,3.7,0.8,3.9C27.9,64.9,27.4,65.4,26.7,66.1z"/>
	<path class="st0" d="M40.4,64.7c-2.7,0,0.5,2.7-3.1,2.3l0.9-8c0-0.8-0.6-1.1-1.4-1.1c-1.7,0.2-2.2,0.2-2.7,0.2
		c-1.3,0,0.1,9-0.5,10.5l0,0c-0.1,0,0,0.3,0,0.3c0,0.6-0.4,2.8,0.5,2.9c2.3-0.5,3.7-0.5,6.2-0.1c0.3,0,0.5-0.2,0.5-0.6
		C40.6,70.9,40.9,64.7,40.4,64.7z"/>
	<path class="st0" d="M50.4,66.3c-0.4-1.3,0.8-7.9-1.6-8.1c-2.4,1,0.9,7.2-2,7.9c-0.1-0.1-0.2-0.1-0.2-0.2c-0.3,0-0.4-2.5-0.5-7.5
		c-0.2-0.2-0.3-0.2-0.3-0.3c-0.2,0-0.4,0-0.4,0.1c-2,0.1-3,0.1-3,0.2c-0.4,0-0.6,0.7-0.7,2.1c0,1.8-0.1,4.7,0,6.3
		C41.2,73.6,51.4,73.4,50.4,66.3z"/>
	<path class="st0" d="M55.6,67.9c3.4-1.1,4.9-1.6,4.9-2.4c-0.8-1.9,0.1-5.5-1-7.4c-9.2,1.9-7.8-2.8-7.3,10l0,0
		c0.3,0-0.4,3.2,0.6,3.8H54c1.2,0,1.8-0.1,1.8-0.4C55.6,69.8,55.2,68.9,55.6,67.9z M55.9,61L55.9,61c0.7,3.1,2.5,3.5-0.2,4.8
		L55.9,61z"/>
	<path class="st0" d="M68.7,58.2c-2.8,0.5,0.8,7.3-2.2,7.9c-0.1-0.1-0.2-0.1-0.2-0.2c-0.3,0-0.4-2.5-0.5-7.5
		c-0.2-0.2-0.3-0.2-0.3-0.3c-0.2,0-0.4,0-0.4,0.1c-2,0.1-3,0.1-3,0.2c-0.4,0-0.6,0.7-0.7,2.1c-0.1,5.2-1.3,13.1,6.4,10.8
		C70.6,71.3,71,58.9,68.7,58.2z"/>
	<path class="st0" d="M78.5,64.7c-2.7,0,0.5,2.7-3.1,2.3l0.9-8c0-0.8-0.6-1.1-1.4-1.1c-1.7,0.2-2.2,0.2-2.7,0.2
		c-1.3,0,0.1,9-0.5,10.5l0,0c-0.1,0,0,0.3,0,0.3c0,0.6-0.4,2.8,0.5,2.9c2.3-0.5,3.7-0.5,6.2-0.1c0.3,0,0.5-0.2,0.5-0.6
		C78.8,70.9,79.1,64.7,78.5,64.7z"/>
	<path class="st0" d="M88.1,63.6c-0.4-3.2-0.5-4.9-0.5-5.1c-4.1-3-9.3,2.9-7.7,7.6c0.7,3.5,0.8,2.9,0.6,5.2c0.1,2,3.2,0.3,3.6,0.3
		C87.2,70.2,88.5,67.1,88.1,63.6z M84.5,69.6L84.5,69.6c-1.5-3.1-2.3-6.2-1.3-9l0,0C84.8,63.4,85.9,66.6,84.5,69.6z"/>
</g>
</svg>
