<?xml version="1.0" encoding="utf-8"?>
<!-- Generator: Adobe Illustrator 25.4.1, SVG Export Plug-In . SVG Version: 6.00 Build 0)  -->
<svg version="1.1" id="svg2" xmlns:svg="http://www.w3.org/2000/svg"
	 xmlns="http://www.w3.org/2000/svg" xmlns:xlink="http://www.w3.org/1999/xlink" x="0px" y="0px" viewBox="0 0 100 100"
	 style="enable-background:new 0 0 100 100;" xml:space="preserve">
<style type="text/css">
	.st0{fill:url(#SVGID_1_);}
	.st1{fill:url(#SVGID_00000170975001029207669940000014935685845053724064_);}
	.st2{fill:url(#SVGID_00000155107071030844058370000010783182928119719562_);}
	.st3{fill:url(#SVGID_00000127751735318478559400000017710243966294339477_);}
	.st4{fill:url(#SVGID_00000026877853173039276320000009833316024229782164_);}
	.st5{fill:url(#SVGID_00000111870860624152018570000006903254840314498182_);}
	.st6{fill:url(#SVGID_00000083811556424313318360000010698475441478846341_);}
	.st7{fill:url(#SVGID_00000018915835078397006190000005407145827041490079_);}
	.st8{fill:url(#SVGID_00000148627532522058905590000014258717430614526343_);}
	.st9{fill:url(#SVGID_00000021837016898409047030000013361272598993514898_);}
	.st10{fill:url(#SVGID_00000037658331906434003880000016023344514609859742_);}
	.st11{fill:url(#SVGID_00000111883307325640447610000015864973017184630420_);}
	.st12{fill:url(#SVGID_00000072967302656032279620000006127745418649780369_);}
</style>
<g>
	<radialGradient id="SVGID_1_" cx="69.5782" cy="45.45" r="13.5162" gradientUnits="userSpaceOnUse">
		<stop  offset="0" style="stop-color:#FFFFFF"/>
		<stop  offset="1" style="stop-color:#006400"/>
	</radialGradient>
	<path class="st0" d="M57.3,55.7c1.1-2.7,2.1-5.4,3.4-8c1.4-2.7,3.1-5.4,5.1-7.7c3.5-4,8-7.3,12.9-9.2c1.2,2.5,2.2,5.3,2.8,8
		c0.7,3.4,0.3,7-0.6,10.3c-3,0.7-5.8,1.9-8.4,3.6c1.4-2.4,2.2-4.8,2.9-7.5c0.7-2.5,0.9-5,1.3-7.6c0.1-0.4-0.6-0.5-0.7-0.1
		c-1.2,4.8-4.3,9.1-7.2,13.1c-2.7,3.6-5.8,6.8-9.4,9.5c-0.5-1-1-2-1.5-2.9C57.9,56.7,57.6,56.2,57.3,55.7z"/>
	
		<radialGradient id="SVGID_00000010275937766881008900000011177556580805780623_" cx="73.15" cy="88.2614" r="10.6113" gradientUnits="userSpaceOnUse">
		<stop  offset="0" style="stop-color:#FFFFFF"/>
		<stop  offset="1" style="stop-color:#006400"/>
	</radialGradient>
	<path style="fill:url(#SVGID_00000010275937766881008900000011177556580805780623_);" d="M64.1,88.4c1.7-2.2,3.9-4.1,6.2-5.6
		c4-2.7,8.9-4.5,13.8-4.8c-0.5,6.8-2.4,13.8-8.1,18l0,0c-2.7,2-6.2,3-9.6,2.3c-0.7-0.1-1.5-0.4-2.2-0.7c2.7-0.2,5.3-1.2,7.4-3.1
		c1.4-1.3,2.5-2.9,3.5-4.5s1.7-3.4,2.7-5c0.2-0.4-0.3-0.7-0.6-0.4c-1.1,1.4-2.3,2.5-3.6,3.7c-1.1,1-2.3,2-3.7,2.6
		c-2.5,1.2-5.1,2.4-7.7,1.8c0-0.2,0-0.4,0.1-0.6C62.5,90.6,63.2,89.5,64.1,88.4z"/>
	
		<radialGradient id="SVGID_00000140016037095310923260000005554732153445944202_" cx="74.7554" cy="66.5" r="12.8041" gradientUnits="userSpaceOnUse">
		<stop  offset="0" style="stop-color:#FFFFFF"/>
		<stop  offset="1" style="stop-color:#006400"/>
	</radialGradient>
	<path style="fill:url(#SVGID_00000140016037095310923260000005554732153445944202_);" d="M79.6,73.8c-2.3,0.5-4.6,1.2-6.8,2.1
		c0.5-0.6,0.9-1.3,1.3-1.9c2.7-4.5,4.6-9.2,6.4-14.1c0-0.1-0.1-0.2-0.2-0.1c-2.2,4.5-5.5,8.5-8.9,12.1c-2.8,2.9-5.5,5.6-8.5,8.2
		c0.2-2.3,0.2-4.7,0-7c0-0.5-0.1-1-0.1-1.4c0.1-0.3,0.2-0.6,0.3-1c1.2-3.4,3-6.6,5.4-9.3c4.6-5.1,11.3-8.2,18.2-8.5
		c0.1,3.6-0.5,7.3-1.6,10.8l0,0C83.8,67.4,81.7,70.4,79.6,73.8L79.6,73.8z"/>
	
		<radialGradient id="SVGID_00000183969580982092576350000016776632950000971137_" cx="50.4" cy="49.3" r="0" gradientUnits="userSpaceOnUse">
		<stop  offset="0" style="stop-color:#FFFFFF"/>
		<stop  offset="1" style="stop-color:#006400"/>
	</radialGradient>
	<path style="fill:url(#SVGID_00000183969580982092576350000016776632950000971137_);" d="M50.4,49.3L50.4,49.3L50.4,49.3z"/>
	
		<radialGradient id="SVGID_00000168082653357011983280000010610708799068058017_" cx="45.9" cy="41.1942" r="14.3716" gradientUnits="userSpaceOnUse">
		<stop  offset="0" style="stop-color:#FFFFFF"/>
		<stop  offset="1" style="stop-color:#006400"/>
	</radialGradient>
	<path style="fill:url(#SVGID_00000168082653357011983280000010610708799068058017_);" d="M46.9,44.8c-0.3,1.6-0.9,3.3-1.7,4.8
		c-0.5,0.9-1.1,1.7-1.5,2.7v0.1c-1.3,1.4-2.6,2.9-3.6,4.5c-0.2-0.7-0.3-1.3-0.5-2c-0.9-3.1-2-6.2-3.6-9.1c-0.9-1.6-1.9-3.2-3-4.7
		c0.1-0.3,0.3-0.6,0.4-0.8c0.4-0.8,0.8-1.6,1.2-2.5c0.8-1.6,1.7-3.2,2.8-4.6c2.1-2.8,4.9-5.5,8-7.2c1.8-0.9,3-0.6,4.3,0.8
		c1.4,1.5,2.6,3.3,3.7,5c1.2,1.9,2.4,3.9,3.4,5.9c0.7,1.5,1.3,3.2,2,4.7c-0.6,1.1-1.1,2.1-1.6,3.3c-1,2.3-1.6,4.6-1.7,7
		c-0.8-1-1.8-2-2.8-2.7c-0.7-0.5-1.4-0.7-2.1-0.9c0.3-1.2,0.6-2.4,0.6-3.6c0.3-5.1-2.2-9.8-3.9-14.4c-0.1-0.3-0.6-0.1-0.5,0.2
		C47.8,35.8,47.8,40.4,46.9,44.8z"/>
	
		<radialGradient id="SVGID_00000147909535911327324890000013627451965271484322_" cx="48.1" cy="70.3075" r="14.097" gradientUnits="userSpaceOnUse">
		<stop  offset="0" style="stop-color:#FFFFFF"/>
		<stop  offset="1" style="stop-color:#006400"/>
	</radialGradient>
	<path style="fill:url(#SVGID_00000147909535911327324890000013627451965271484322_);" d="M52.4,79c0-0.1,0-0.1,0.1-0.2
		c0.8-3.4,0.9-6.6,0.2-10.1c-0.3-1.6-0.8-3.2-1.3-4.8c-0.5-1.5-1.2-2.9-1.9-4.2c-0.1-0.3-0.5-0.1-0.4,0.2c1.6,4.8,1.2,10,0.1,14.9
		c-0.4-0.5-0.9-1-1.3-1.5c-0.8-0.8-1.7-1.6-2.4-2.5c-0.8-1.2-2.5-0.7-3.2,0.2c-0.7,0.9-1.2,2-1.8,3c-0.5,0.9-1.1,1.8-1.6,2.6
		c-0.6,0.9-1.2,1.8-1.7,2.6c0-0.3,0.1-0.6,0.1-1c0.2-1.3,0.3-2.6,0.5-3.9c0.4-2.7,1.2-5.3,2.1-7.8c1.7-4.4,4.3-8.4,7.8-11.7
		c0.7-0.6,1.4-1.6,2.4-1c0.9,0.6,1.5,1.6,2.1,2.4c1.4,1.9,2.6,3.9,3.6,6.1c2,4.3,3.2,8.9,3.2,13.7c0,2.4-0.2,4.8-0.7,7.1
		c-0.3,1.3-0.6,2.6-1.1,3.8V87c-0.8-2-1.8-4-2.9-5.8C53.5,80.6,52.9,79.8,52.4,79z"/>
	
		<radialGradient id="SVGID_00000034805128914293390620000008629915347224402331_" cx="25.1618" cy="52.7" r="14.0931" gradientUnits="userSpaceOnUse">
		<stop  offset="0" style="stop-color:#FFFFFF"/>
		<stop  offset="1" style="stop-color:#006400"/>
	</radialGradient>
	<path style="fill:url(#SVGID_00000034805128914293390620000008629915347224402331_);" d="M26,59.6c-1.1-2.3-2.3-4.6-3-7.1
		c-0.7-2.4-1.1-4.8-1.6-7.3c0-0.2-0.3-0.1-0.3,0l0,0c-0.5,2.7-0.4,5.4-0.2,8.1c0.2,2.6,0.5,5.2,1.3,7.7c0.4,1.2,0.9,2.4,1.4,3.6
		c-2.5-2-5.2-3.6-8.1-4.8c-0.5-4.1-0.9-8.3-0.2-12.5c0.6-4.1,2.1-8.3,4.6-11.7c4,3.3,7.5,7.1,10.1,11.6c1.5,2.6,2.9,5.3,3.9,8.1
		c0.5,1.4,0.9,2.8,1.2,4.2c0.1,0.6,0.2,1.2,0.3,1.8c-0.5,1.2-1,2.5-1.4,3.7c-0.5,1.6-0.9,3.2-1.1,4.8c-1.1-1.3-2.2-2.7-3.2-4.1
		C28.2,63.9,27,61.8,26,59.6z"/>
	
		<radialGradient id="SVGID_00000150087013597070184580000001354607796336163475_" cx="63.15" cy="23.3998" r="11.9346" gradientUnits="userSpaceOnUse">
		<stop  offset="0" style="stop-color:#FFFFFF"/>
		<stop  offset="1" style="stop-color:#006400"/>
	</radialGradient>
	<path style="fill:url(#SVGID_00000150087013597070184580000001354607796336163475_);" d="M65.4,27.5c-0.7-4.2-2.6-8.2-4.8-11.8
		c-0.2-0.3-0.6-0.1-0.5,0.2c1.7,3.7,2.2,7.8,1.9,11.8c-0.1,2-0.4,4-0.8,6c-0.1,0.7-0.3,1.4-0.6,2.1c-0.9-1.9-1.9-3.8-3.1-5.7
		c-1.1-1.8-2.3-3.5-3.6-5.1c-0.7-0.8-1.4-1.7-2.2-2.3c1.6-2.5,2.9-5.2,4.7-7.5c0.5-0.7,1.1-1.4,1.6-2.1c0.5-0.6,1.2-1.7,1.9-2
		c1-0.5,2.6,1,3.4,1.6c2.9,1.9,5.4,4.4,7.5,7.1c1.1,1.4,2,3,2.7,4.6c0.5,1,0.8,2.1,1.1,3.1c-3.3,1.6-6.3,3.6-9,6.1
		C65.9,31.5,65.8,29.5,65.4,27.5z"/>
	
		<radialGradient id="SVGID_00000163035677405367699220000006375677426778938260_" cx="46.1296" cy="87.75" r="10.7827" gradientUnits="userSpaceOnUse">
		<stop  offset="0" style="stop-color:#FFFFFF"/>
		<stop  offset="1" style="stop-color:#006400"/>
	</radialGradient>
	<path style="fill:url(#SVGID_00000163035677405367699220000006375677426778938260_);" d="M43.5,77.8c0.5-0.8,1-1.5,1.4-2.4
		c0.2,0.2,0.4,0.4,0.6,0.5c0.7,0.6,1.4,1.3,2,1.9c0.3,0.3,0.6,0.7,0.9,1.1c0.2,0.4,0.4,0.7,0.8,1c0.6,0.8,1.2,1.6,1.7,2.5
		c1.9,3,3.7,6.4,4.1,10c0.4,3.2-0.8,6.2-3.9,7.4c-0.3,0.1-0.6,0.2-0.9,0.3c-2.1-2.3-3.6-5.2-4.7-8.1c-0.5-1.5-0.9-3.1-1-4.6
		c-0.2-1.7-0.1-3.7,0.3-5.3c0.1-0.2-0.3-0.3-0.4-0.1c-0.8,1.8-1.5,3.4-1.8,5.3c-0.3,1.8-0.4,3.5-0.3,5.4c0.1,2.5,0.8,4.9,2,7.1
		c-0.1,0-0.2,0-0.3-0.1c-0.9-0.2-2-0.2-2.8-0.4c-2.3-1.6-3.9-4.2-4-7.1c-0.2-3.4,1.6-6.6,3.3-9.4C41.4,81,42.5,79.4,43.5,77.8z"/>
	
		<radialGradient id="SVGID_00000025440832602518912930000017881491865571495571_" cx="29.4598" cy="24.6445" r="12.149" gradientUnits="userSpaceOnUse">
		<stop  offset="0" style="stop-color:#FFFFFF"/>
		<stop  offset="1" style="stop-color:#006400"/>
	</radialGradient>
	<path style="fill:url(#SVGID_00000025440832602518912930000017881491865571495571_);" d="M37.2,10.8c0.4,0,0.4,0.1,0.6,0.5
		c0.7,1.5,1,3.5,1.3,5.2c0.3,1.8,0.6,3.7,0.5,5.6c-0.1,1.3-0.4,2.5-0.3,3.7c-2.2,2.1-4.1,4.7-5.5,7.4c-0.8,1.5-1.6,3.1-2,4.8
		c0,0.2-0.1,0.3-0.1,0.5c-0.7-0.9-1.5-1.7-2.4-2.5v-0.1c0.1-0.8-0.2-1.7-0.3-2.5c-0.3-3.1,0.1-6.4,0.6-9.4c0.6-3.1,1.7-6.6,3.7-9.1
		c0.2-0.2-0.2-0.6-0.4-0.3c-1.3,1.3-2.6,2.5-3.7,4s-2,3-2.8,4.7c-1.4,2.7-1.9,5.7-2,8.8c-0.2-0.2-0.5-0.3-0.7-0.5
		c-1.1-0.7-2.5-0.4-3.3,0.7c-0.4,0.5-0.7,1-1.1,1.5c0.1-0.6,0.1-1.2,0.2-1.7c0.3-2,0.7-4,1.3-5.9c2.2-6.6,7.5-11.9,14.1-14.4l0,0
		C35.4,11.3,36.5,10.7,37.2,10.8z"/>
	
		<radialGradient id="SVGID_00000012447962579718471260000015793402369486132881_" cx="46.3" cy="10.8889" r="11.3642" gradientUnits="userSpaceOnUse">
		<stop  offset="0" style="stop-color:#FFFFFF"/>
		<stop  offset="1" style="stop-color:#006400"/>
	</radialGradient>
	<path style="fill:url(#SVGID_00000012447962579718471260000015793402369486132881_);" d="M54.3,11.5c-1.6,2.9-3.1,6.5-3.5,10
		c-1.1-0.2-2.1,0-3.1,0.3c0.1-0.4,0.3-0.8,0.4-1.2c0.5-1.8,0.8-3.6,0.7-5.5c0-1.9-0.3-3.6-0.7-5.4c-0.4-1.7-1.2-3.3-1.8-4.9
		c-0.1-0.2-0.4-0.2-0.4,0.1c0.3,1.6,0.1,3.3,0,4.9S45.4,13,45,14.5c-0.2,0.9-0.5,1.9-0.8,2.8c-0.2-1.2-0.4-2.3-0.8-3.4
		c-0.7-2.1-1.6-4.5-3.7-5.6c-1.7-1-3.5-0.6-5.2,0.1c0.7-0.7,1.4-1.3,2.2-1.9c2.3-1.9,5-3.4,7.6-4.8C45.4,1,46.7,0.2,48,0
		c1.1-0.2,1.6,1,2.4,1.6c2.2,1.8,6.3,3.9,7.6,6.5c0,0.1,0.1,0.2,0.1,0.2C57.6,9.1,54.7,10.8,54.3,11.5z"/>
	
		<radialGradient id="SVGID_00000064351339818118834500000010008761183963185086_" cx="23.9" cy="91.3" r="7.8667" gradientUnits="userSpaceOnUse">
		<stop  offset="0" style="stop-color:#FFFFFF"/>
		<stop  offset="1" style="stop-color:#006400"/>
	</radialGradient>
	<path style="fill:url(#SVGID_00000064351339818118834500000010008761183963185086_);" d="M32.5,91.2c0,1.1,0.1,2.2,0.4,3.4
		c0,0.1,0.1,0.3,0.1,0.4c-0.1,0-0.3-0.1-0.4-0.1c-0.6-0.2-1.2-0.3-1.8-0.5c-1.3-0.3-2.5-0.6-3.7-1.1s-2.3-1.1-3.4-1.7
		c-0.6-0.4-1.1-0.8-1.6-1.2c-0.6-0.4-1.1-0.8-1.7-1.3c-0.2-0.2-0.5,0.1-0.3,0.3c0.4,0.6,0.8,1.2,1.3,1.8c0.4,0.5,0.9,1,1.4,1.4
		c1,1,2,1.9,3.1,2.8c1,0.8,2,1.6,3.1,2.3c-2.4-0.3-4.7-1.2-6.8-2.5c-3.6-2.3-6.3-6.1-7.4-10.3c3,0.8,6,1.1,9,1.7
		C27.1,87.4,30.3,88.8,32.5,91.2z"/>
	
		<radialGradient id="SVGID_00000126311862617707690710000000701272967826270116_" cx="23.856" cy="74.4" r="10.4227" gradientUnits="userSpaceOnUse">
		<stop  offset="0" style="stop-color:#FFFFFF"/>
		<stop  offset="1" style="stop-color:#006400"/>
	</radialGradient>
	<path style="fill:url(#SVGID_00000126311862617707690710000000701272967826270116_);" d="M14,64.1c4.6,1.6,9.2,4.1,12.7,7.4
		c2.1,1.9,3.8,4.3,5.2,6.7c0.7,1.2,1.4,2.5,1.9,3.7c0.3,0.7,0.4,1.4,0.6,2.2c-0.1,0.2-0.2,0.4-0.3,0.6c-0.5-0.3-1-0.5-1.5-0.8
		c-0.8-0.4-1.5-0.9-2.2-1.4c-1.5-1-3-1.9-4.3-3c-2.8-2.3-5.4-4.9-7.3-8.1c-0.2-0.3-0.6-0.1-0.5,0.2c1.6,3.5,3.4,6.9,5.8,9.8
		c0.3,0.4,0.7,0.9,1.1,1.3c-2.7-0.7-5.4-1-8.1-1.6c-0.5-1-1.1-1.9-1.5-2.8c-0.8-1.7-1.4-3.3-1.7-5.1C13.1,70,13.1,67,14,64.1z"/>
</g>
</svg>
