<?xml version="1.0" encoding="utf-8"?>
<!-- Generator: Adobe Illustrator 25.4.1, SVG Export Plug-In . SVG Version: 6.00 Build 0)  -->
<svg version="1.1" id="Capa_1" xmlns="http://www.w3.org/2000/svg" xmlns:xlink="http://www.w3.org/1999/xlink" x="0px" y="0px"
	 viewBox="0 0 100 100" style="enable-background:new 0 0 100 100;" xml:space="preserve">
<style type="text/css">
	.st0{fill:#FECD52;}
</style>
<path class="st0" d="M19.8,25.5c1.5,0.4,2.3,1.5,2.3,3.4l0.1,1.2c-0.1,3.3-0.1,5.7-0.1,7.4c0,3.9,0.5,12.3,1.5,25l0.4,8.4
	c0,2.4-2.1,3.7-6.4,3.7l-4.9,0.3c-1.4-0.1-2.7-0.8-3.5-2c-0.6,0-1-3.9-1.4-11.8V43.5c0-3.6-0.2-8.6-0.5-14.9c0-1.3,1-2.2,3.1-2.7
	c0.5-0.1,1.1-0.1,1.6-0.1h0.3C14.1,25.8,16.6,25.7,19.8,25.5z"/>
<path class="st0" d="M53,25.2c0.9,0,1.4,0.7,1.5,2c-0.1,8.2,0.6,16.5,2,24.6v0.5c0,1.9-5.9,4.7-17.6,8.2c-0.4,0.4-0.5,0.8-0.5,1.3v1
	c0.1,3.4,0.5,6.8,1.1,10.1v0.1c0,0.9-2.1,1.3-6.4,1.3H29c-1.1,0-1.6-0.6-1.6-1.8c-0.3-6.4-0.5-10.3-0.7-11.8h0.1l-0.1-0.3
	c-0.8-19.2-1.2-29.6-1.2-31.1c0.2-1.7,1-2.6,2.6-2.6l7.2,0.4c6-0.2,11.9-1,17.7-2.3H53z M39.9,35.8L39.2,53c3.5-1.8,5.3-3,5.3-3.7
	c-1.2-4.6-2.7-9.1-4.5-13.5L39.9,35.8z"/>
<path class="st0" d="M84.7,26.1c0.8,0,1.3,0.5,1.8,1.6l-0.1,0.7V30c2.2,8.1,3.2,13.7,3.2,16.7c0.3,1.4,0.8,5.9,1.5,13.2
	c0.7,4.1,1.3,8.2,1.6,12.3C92.4,73.4,91.8,74,91,74c-1.7-0.4-3.4-0.6-5.1-0.7l-7,1c-0.9-0.2-1.5-1-1.3-1.9c0-2.6-0.8-5.1-2.2-7.3
	c-1.1,0-1.6,0.9-1.6,2.7c-0.8,4.2-1.9,6.2-3.2,6.2c-0.3,0-0.4,0-0.4,0.1c-0.1,0-0.3-0.1-0.4-0.1c-0.6,0-3.9,0.2-10,0.5
	c-0.9,0-1.7-0.6-2-1.3c0.1-1.5,0.1-2.6,0.1-3.4V65c0-7.3,1.4-17,4.1-29.1l0.4-3c-0.3-2.3-0.4-3.9-0.4-4.7c0.3-1.3,0.9-1.9,1.8-1.9
	c2.6,0.6,5.2,0.9,7.8,1h4.1C78.6,27.3,81.7,26.9,84.7,26.1z M75.7,34.6c-2,10-3,16.5-3,19.6c1.8-2,3.9-3.8,6.1-5.4
	C78.7,48.1,77.7,43.3,75.7,34.6L75.7,34.6z"/>
</svg>
