<?xml version="1.0" encoding="utf-8"?>
<!-- Generator: Adobe Illustrator 25.4.1, SVG Export Plug-In . SVG Version: 6.00 Build 0)  -->
<svg version="1.1" id="Capa_1" xmlns="http://www.w3.org/2000/svg" xmlns:xlink="http://www.w3.org/1999/xlink" x="0px" y="0px"
	 viewBox="0 0 100 100" style="enable-background:new 0 0 100 100;" xml:space="preserve">
<style type="text/css">
	.st0{fill:url(#SVGID_1_);}
	.st1{fill:url(#SVGID_00000069369462067678448050000008955527977230673810_);}
	.st2{fill:url(#SVGID_00000100372604987724617440000001739566411065793162_);}
</style>
<linearGradient id="SVGID_1_" gradientUnits="userSpaceOnUse" x1="0.8985" y1="35.279" x2="30.278" y2="64.6585" gradientTransform="matrix(1 0 0 -1 0 100)">
	<stop  offset="0" style="stop-color:#3A7F15"/>
	<stop  offset="0.654" style="stop-color:#7FC116"/>
</linearGradient>
<path class="st0" d="M19.8,25.5c1.5,0.4,2.3,1.5,2.3,3.4l0.1,1.2c-0.1,3.3-0.1,5.7-0.1,7.4c0,3.9,0.5,12.3,1.5,25l0.4,8.4
	c0,2.4-2.1,3.7-6.4,3.7l-4.9,0.3c-1.4-0.1-2.7-0.8-3.5-2c-0.6,0-1-3.9-1.4-11.8V43.5c0-3.6-0.2-8.6-0.5-14.9c0-1.3,1-2.2,3.1-2.7
	c0.5-0.1,1.1-0.1,1.6-0.1h0.3C14.1,25.8,16.6,25.7,19.8,25.5z"/>
<linearGradient id="SVGID_00000011727890846031685100000009046556307670256260_" gradientUnits="userSpaceOnUse" x1="18.5596" y1="35.3742" x2="55.7724" y2="72.5869" gradientTransform="matrix(1 0 0 -1 0 100)">
	<stop  offset="0" style="stop-color:#3A7F15"/>
	<stop  offset="0.654" style="stop-color:#7FC116"/>
</linearGradient>
<path style="fill:url(#SVGID_00000011727890846031685100000009046556307670256260_);" d="M53,25.2c0.9,0,1.4,0.7,1.5,2
	c-0.1,8.2,0.6,16.5,2,24.6v0.5c0,1.9-5.9,4.7-17.6,8.2c-0.4,0.4-0.5,0.8-0.5,1.3v1c0.1,3.4,0.5,6.8,1.1,10.1V73
	c0,0.9-2.1,1.3-6.4,1.3H29c-1.1,0-1.6-0.6-1.6-1.8c-0.3-6.4-0.5-10.3-0.7-11.8h0.1l-0.1-0.3c-0.8-19.2-1.2-29.6-1.2-31.1
	c0.2-1.7,1-2.6,2.6-2.6l7.2,0.4c6-0.2,11.9-1,17.7-2.3l0,0V25.2z M39.9,35.8L39.2,53c3.5-1.8,5.3-3,5.3-3.7
	C43.3,44.7,41.8,40.2,39.9,35.8L39.9,35.8z"/>
<linearGradient id="SVGID_00000059290138221726719960000005923789402376549007_" gradientUnits="userSpaceOnUse" x1="55.958" y1="28.4455" x2="93.3701" y2="65.8576" gradientTransform="matrix(1 0 0 -1 0 100)">
	<stop  offset="0" style="stop-color:#3A7F15"/>
	<stop  offset="0.654" style="stop-color:#7FC116"/>
</linearGradient>
<path style="fill:url(#SVGID_00000059290138221726719960000005923789402376549007_);" d="M84.7,26.1c0.8,0,1.3,0.5,1.8,1.6l-0.1,0.7
	V30c2.2,8.1,3.2,13.7,3.2,16.7c0.3,1.4,0.8,5.9,1.5,13.2c0.7,4.1,1.3,8.2,1.6,12.3C92.4,73.4,91.8,74,91,74
	c-1.7-0.4-3.4-0.6-5.1-0.7l-7,1c-0.9-0.2-1.5-1-1.3-1.9c0-2.6-0.8-5.1-2.2-7.3c-1.1,0-1.6,0.9-1.6,2.7C73,72,71.9,74,70.6,74
	c-0.3,0-0.4,0-0.4,0.1c-0.1,0-0.3-0.1-0.4-0.1c-0.6,0-3.9,0.2-10,0.5c-0.9,0-1.7-0.6-2-1.3c0.1-1.5,0.1-2.6,0.1-3.4V65
	c0-7.3,1.4-17,4.1-29.1l0.4-3C62.1,30.6,62,29,62,28.2c0.3-1.3,0.9-1.9,1.8-1.9c2.6,0.6,5.2,0.9,7.8,1h4.1
	C78.6,27.3,81.7,26.9,84.7,26.1z M75.7,34.6c-2,10-3,16.5-3,19.6c1.8-2,3.9-3.8,6.1-5.4C78.7,48.1,77.7,43.3,75.7,34.6L75.7,34.6z"
	/>
</svg>
