<svg id="Capa_1" data-name="Capa 1" xmlns="http://www.w3.org/2000/svg" viewBox="0 0 100 100"><defs><style>.cls-1{fill:#fecd52;}</style></defs><path class="cls-1" d="M48.86,25.56q0-5.22.57-14.95v-.23c-.17-2.44-.89-3.65-2.17-3.65a9.68,9.68,0,0,1-2.74.68q-.8,0-6.28-.68a2,2,0,0,0-2.16,1.59c.07.78.11,1.39.11,1.83v1.71c0,.84.08,2.21.23,4.11a26.09,26.09,0,0,1-3.65.34c.45-4.45.68-7,.68-7.76q0-2.63-4.68-2.62C28,6,27.33,6,26.83,6c-.93,0-2.49,0-4.68-.11A.94.94,0,0,1,21.7,6Q20.1,6.87,20.1,11q0,4.56-.12,8.33.24,9.87.23,13.58c-.07,2.63-.11,4-.11,4.11a15.51,15.51,0,0,1,.11,1.83c-.07,2.24-.19,4.1-.34,5.59v.11a2.2,2.2,0,0,0,2.51,1.94c.17,0,.59,0,1.26-.11q6,.11,7.53.11a6.44,6.44,0,0,0,.91-.11,2.28,2.28,0,0,0,1.49-2.28Q33,38.28,33,37.2V25.33c0-.88,1.34-1.64,4-2.28v2.62q-.47,17.61-.8,18.83v.35q0,2.22,4.22,2.73A40.91,40.91,0,0,0,45.09,47a18.73,18.73,0,0,0,2.06.12h.68A2,2,0,0,0,50,45.42a70.47,70.47,0,0,1-1.14-13.24Z"/><path class="cls-1" d="M77.69,22.19Q76.1,7.64,76.1,6.67q-.31-1.86-5.94-2.28h-.91A14.78,14.78,0,0,0,65,5.07q-12.8,4.37-12.79,18.6a30.23,30.23,0,0,0,.57,5.94Q55,39.51,55,41.25v.34c0,.19-.07,1.41-.23,3.65v.12c.21,2,1.16,3.08,2.86,3.08a56.14,56.14,0,0,0,8.21-2.17q12-5.44,12-20.54Q77.81,24.31,77.69,22.19ZM66.62,40.57h-.23v-.23q-4.91-10.4-4.9-18.83a21.52,21.52,0,0,1,1.25-8.34h.12a2.91,2.91,0,0,0,.45,1.15,31.33,31.33,0,0,1,5.37,17.46A20.74,20.74,0,0,1,66.62,40.57Z"/><path class="cls-1" d="M34.42,56.7q0-1-5.25-1.37-2.28.22-2.28,1.59,0,2.3.34,9.25v.11h-.12q-.33-.8-4.22-6.39-2.66-4.56-5-4.56-3.83,0-6.73.22c-1.68,0-2.51.69-2.51,2.06.15,2.6.22,6.41.22,11.41v5.37c.16,6.54.23,10.19.23,11v4.91c0,.65,0,1.6-.11,2.85.19.61.34.92.45.92q0,1,7.31,1.59c1.12,0,1.77-.72,1.94-2.17q0-2.16-.46-16.2a.92.92,0,0,0-.11-.34h.11a4.14,4.14,0,0,1,.8.91Q20.33,80,26.43,92q1.34,2.75,5.25,2.74a9.8,9.8,0,0,0,2.4-.34c1.29-.53,1.94-1.83,1.94-3.88v-.8l-.57-10.84Q35.27,56.7,34.42,56.7Z"/><path class="cls-1" d="M53.52,71c3.15.21,4.73.52,4.73.94q0,4.59,1.74,4.59a22,22,0,0,0,3.46-1.14c.85,0,1.28-.81,1.28-2.42v-4.4q0-4.56.11-12.24c0-.36-.31-.7-.94-1q-10,.57-11.64.57-10.15,0-10.16.82-.93,0-1.28,13,.34,15.93.34,18v.57a48.5,48.5,0,0,1-.45,5.53c0,1,.65,1.55,2,1.74h.92c.47,0,2.24-.15,5.3-.45,1.09,0,3.9,0,8.45.11,2-.15,3.59-.23,4.59-.23h.83c1.14,0,1.8-.77,2-2.31-.1-3.63-.14-5.83-.14-6.59,0-.4.08-1.66.25-3.79q0-2.4-4.05-3a.76.76,0,0,1-.34.11c-1.18,0-1.87,1.5-2.08,4.48a25.87,25.87,0,0,0-3.94-.22c-1.69,0-2.54-.23-2.54-.69,0-1.71.28-2.86.83-3.45,2.6-.29,4-.94,4.25-2a1.81,1.81,0,0,0-1-1.63c-1.84-.21-2.77-.47-2.77-.8V73.33A7.19,7.19,0,0,1,53.52,71Z"/><path class="cls-1" d="M90.92,56.1c0-1-1.4-1.43-4.2-1.43H86.3c-1.18.21-1.77.72-1.77,1.54a20.15,20.15,0,0,0,.23,3.2,1.1,1.1,0,0,0-.12.57.68.68,0,0,0,.12.31h-.12Q84.33,71,83.41,71q-.54-4.9-.54-7l.43-6.84v-.23a1.87,1.87,0,0,0-1.65-2.09c-1.41,0-4.43,0-9.05-.11q-4.08,0-4.08,2Q69.06,62.84,70,75.1c0,1.79.37,2.81,1.11,3.08l5.62.43q1.23,0,1.77,7c-.11.88-.3,1.31-.54,1.31h-.12a44.59,44.59,0,0,1-6.39-.43c-.59.1-.88.21-.88.35-.88,0-1.36,1.06-1.46,3.19v1.2a4.68,4.68,0,0,0,.77,3c0,.78,2.29,1.25,6.85,1.42,2.51,0,3.77-.07,3.77-.22q6.08,0,7.93-.89a3.75,3.75,0,0,0,1.77-2.42q.34-12.1,1.22-32.67v-.55C91.28,57.08,91.13,56.15,90.92,56.1Z"/></svg>