<?xml version="1.0" encoding="utf-8"?>
<!-- Generator: Adobe Illustrator 25.4.1, SVG Export Plug-In . SVG Version: 6.00 Build 0)  -->
<svg version="1.1" id="Capa_1" xmlns="http://www.w3.org/2000/svg" xmlns:xlink="http://www.w3.org/1999/xlink" x="0px" y="0px"
	 viewBox="0 0 100 100" style="enable-background:new 0 0 100 100;" xml:space="preserve">
<style type="text/css">
	.st0{fill:url(#SVGID_1_);}
	.st1{fill:url(#SVGID_00000142143322076450039820000006040979035015848855_);}
	.st2{fill:url(#SVGID_00000137118710536609174370000013654332633370004668_);}
	.st3{fill:url(#SVGID_00000010288096311025940090000013774345784587961489_);}
	.st4{fill:url(#SVGID_00000151516944747660012350000006168847536624363193_);}
</style>
<radialGradient id="SVGID_1_" cx="34.935" cy="26.735" r="18.1861" gradientUnits="userSpaceOnUse">
	<stop  offset="0" style="stop-color:#FFFFFF"/>
	<stop  offset="0.726" style="stop-color:#AA8400"/>
</radialGradient>
<path class="st0" d="M48.9,25.6c0-3.5,0.2-8.5,0.6-14.9v-0.2c-0.2-2.4-0.9-3.7-2.2-3.7c-0.9,0.4-1.8,0.6-2.7,0.7
	c-0.5,0-2.6-0.2-6.3-0.7c-1-0.1-2,0.6-2.2,1.6c0.1,0.8,0.1,1.4,0.1,1.8v1.7c0,0.8,0.1,2.2,0.2,4.1c-1.2,0.2-2.4,0.3-3.7,0.3
	c0.5-4.4,0.7-7,0.7-7.8c0-1.8-1.6-2.6-4.7-2.6C28,6,27.3,6,26.8,6c-0.9,0-2.5,0-4.7-0.1C22,6,21.9,6,21.7,6c-1.1,0.6-1.6,2.2-1.6,5
	c0,3,0,5.8-0.1,8.3c0.2,6.6,0.2,11.1,0.2,13.6c-0.1,2.6-0.1,4-0.1,4.1c0.1,0.6,0.1,1.2,0.1,1.8c-0.1,2.2-0.2,4.1-0.3,5.6v0.1
	c0.1,1.2,1.2,2.1,2.4,2c0,0,0.1,0,0.1,0c0.2,0,0.6,0,1.3-0.1c4,0.1,6.5,0.1,7.5,0.1c0.3,0,0.6-0.1,0.9-0.1c0.9-0.3,1.6-1.3,1.5-2.3
	c-0.4-3.9-0.6-6.2-0.6-6.9V25.3c0-0.9,1.3-1.6,4-2.3v2.6c-0.3,11.7-0.6,18-0.8,18.8v0.3c0,1.5,1.4,2.4,4.2,2.7
	c1.6-0.1,3.1-0.3,4.7-0.6c0.7,0.1,1.4,0.1,2.1,0.1h0.7c1.1,0.1,2-0.6,2.2-1.7c-0.8-4.4-1.2-8.8-1.1-13.2V25.6z"/>
<radialGradient id="SVGID_00000010305626448700711860000013765829371411577984_" cx="65.0249" cy="26.415" r="18.0184" gradientUnits="userSpaceOnUse">
	<stop  offset="0" style="stop-color:#FFFFFF"/>
	<stop  offset="0.726" style="stop-color:#AA8400"/>
</radialGradient>
<path style="fill:url(#SVGID_00000010305626448700711860000013765829371411577984_);" d="M77.7,22.2c-1.1-9.7-1.6-14.9-1.6-15.5
	c-0.2-1.2-2.2-2-5.9-2.3h-0.9c-1.4,0-2.9,0.2-4.2,0.7C56.5,8,52.2,14.2,52.2,23.7c0,2,0.2,4,0.6,5.9c1.5,6.6,2.2,10.5,2.2,11.6v0.3
	c0,0.2-0.1,1.4-0.2,3.7v0.1c0.2,2,1.2,3.1,2.9,3.1c2.8-0.5,5.5-1.2,8.2-2.2c8-3.6,12-10.5,12-20.5C77.8,24.8,77.8,23.6,77.7,22.2z
	 M66.6,40.6h-0.2v-0.2c-3.3-6.9-4.9-13.2-4.9-18.8c-0.1-2.8,0.3-5.7,1.2-8.3h0.1c0.1,0.4,0.2,0.8,0.5,1.1c3.5,5.2,5.4,11.2,5.4,17.5
	C68.6,34.8,67.9,37.8,66.6,40.6z"/>
<radialGradient id="SVGID_00000035505175354326135310000012965247993951764613_" cx="22.335" cy="75.495" r="17.2323" gradientUnits="userSpaceOnUse">
	<stop  offset="0" style="stop-color:#FFFFFF"/>
	<stop  offset="0.726" style="stop-color:#AA8400"/>
</radialGradient>
<path style="fill:url(#SVGID_00000035505175354326135310000012965247993951764613_);" d="M34.4,56.7c0-0.7-1.8-1.1-5.2-1.4
	c-1.5,0.1-2.3,0.7-2.3,1.6c0,1.5,0.1,4.6,0.3,9.2v0.1h-0.1c-0.2-0.5-1.6-2.7-4.2-6.4c-1.8-3-3.4-4.6-5-4.6c-2.6,0-4.8,0.1-6.7,0.2
	c-1.7,0-2.5,0.7-2.5,2.1C8.8,60.2,8.9,64,8.9,69v5.4c0.2,6.5,0.2,10.2,0.2,11v4.9c0,0.7,0,1.6-0.1,2.8c0.2,0.6,0.3,0.9,0.4,0.9
	c0,0.7,2.4,1.2,7.3,1.6c1.1,0,1.8-0.7,1.9-2.2c0-1.4-0.2-6.8-0.5-16.2c0-0.1-0.1-0.2-0.1-0.3h0.1c0.3,0.3,0.6,0.6,0.8,0.9
	c0.9,1.4,3.3,6.1,7.4,14.1c0.9,1.8,2.6,2.7,5.2,2.7c0.8,0,1.6-0.1,2.4-0.3c1.3-0.5,1.9-1.8,1.9-3.9v-0.8l-0.6-10.8
	C35.3,64.1,35,56.7,34.4,56.7z"/>
<radialGradient id="SVGID_00000021121662537199223900000003795167214480733070_" cx="52.81" cy="75.445" r="16.5985" gradientUnits="userSpaceOnUse">
	<stop  offset="0" style="stop-color:#FFFFFF"/>
	<stop  offset="0.726" style="stop-color:#AA8400"/>
</radialGradient>
<path style="fill:url(#SVGID_00000021121662537199223900000003795167214480733070_);" d="M53.5,71c3.2,0.2,4.7,0.5,4.7,0.9
	c0,3.1,0.6,4.6,1.7,4.6c1.2-0.3,2.3-0.7,3.5-1.1c0.9,0,1.3-0.8,1.3-2.4v-4.4c0-3,0-7.1,0.1-12.2c0-0.4-0.3-0.7-0.9-1
	c-6.7,0.4-10.5,0.6-11.6,0.6c-6.8,0-10.2,0.3-10.2,0.8c-0.6,0-1,4.3-1.3,13c0.2,10.6,0.3,16.6,0.3,18v0.6c0,1.9-0.2,3.7-0.5,5.5
	c0,1,0.7,1.6,2,1.7h0.9c0.5,0,2.2-0.2,5.3-0.4c1.1,0,3.9,0,8.5,0.1c2-0.2,3.6-0.2,4.6-0.2h0.8c1.1,0,1.8-0.8,2-2.3
	c-0.1-3.6-0.1-5.8-0.1-6.6c0-0.4,0.1-1.7,0.2-3.8c0-1.6-1.4-2.6-4-3c-0.1,0.1-0.2,0.1-0.3,0.1c-1.2,0-1.9,1.5-2.1,4.5
	c-1.3-0.2-2.6-0.2-3.9-0.2c-1.7,0-2.5-0.2-2.5-0.7c0-1.7,0.3-2.9,0.8-3.4c2.6-0.3,4-0.9,4.2-2c0-0.7-0.4-1.3-1-1.6
	c-1.8-0.2-2.8-0.5-2.8-0.8v-1.8C53.2,72.5,53.3,71.8,53.5,71z"/>
<radialGradient id="SVGID_00000128478389896558322330000002557841043289395896_" cx="79.97" cy="75.16" r="16.5973" gradientUnits="userSpaceOnUse">
	<stop  offset="0" style="stop-color:#FFFFFF"/>
	<stop  offset="0.726" style="stop-color:#AA8400"/>
</radialGradient>
<path style="fill:url(#SVGID_00000128478389896558322330000002557841043289395896_);" d="M90.9,56.1c0-1-1.4-1.4-4.2-1.4h-0.4
	c-1.2,0.2-1.8,0.7-1.8,1.5c0,1.1,0.1,2.1,0.2,3.2c-0.1,0.2-0.1,0.4-0.1,0.6c0,0.1,0.1,0.2,0.1,0.3h-0.1C84.4,67.4,84,71,83.4,71
	c-0.4-3.3-0.5-5.6-0.5-7l0.4-6.8v-0.2c0.1-1-0.6-2-1.6-2.1c0,0,0,0,0,0c-1.4,0-4.4,0-9.1-0.1c-2.7,0-4.1,0.7-4.1,2
	c0.4,4.1,0.9,10.2,1.5,18.4c0,1.8,0.4,2.8,1.1,3.1l5.6,0.4c0.8,0,1.4,2.3,1.8,7c-0.1,0.9-0.3,1.3-0.5,1.3h-0.1
	c-2.1,0-4.3-0.1-6.4-0.4c-0.6,0.1-0.9,0.2-0.9,0.3c-0.9,0-1.4,1.1-1.5,3.2v1.2c-0.1,1.1,0.2,2.1,0.8,3c0,0.8,2.3,1.2,6.8,1.4
	c2.5,0,3.8-0.1,3.8-0.2c4.1,0,6.7-0.3,7.9-0.9c0.9-0.5,1.5-1.4,1.8-2.4c0.2-8.1,0.6-19,1.2-32.7v-0.5C91.3,57.1,91.1,56.2,90.9,56.1
	z"/>
</svg>
