<?xml version="1.0" encoding="utf-8"?>
<!-- Generator: Adobe Illustrator 25.4.1, SVG Export Plug-In . SVG Version: 6.00 Build 0)  -->
<svg version="1.1" id="Capa_1" xmlns="http://www.w3.org/2000/svg" xmlns:xlink="http://www.w3.org/1999/xlink" x="0px" y="0px"
	 viewBox="0 0 100 100" style="enable-background:new 0 0 100 100;" xml:space="preserve">
<style type="text/css">
	.st0{fill:url(#SVGID_1_);}
	.st1{fill:url(#SVGID_00000067226511431325630700000012332769753060303232_);}
	.st2{fill:url(#SVGID_00000051343954674628291810000002002692112378186142_);}
	.st3{fill:url(#SVGID_00000111894547263589850830000018245722385599384229_);}
	.st4{fill:url(#SVGID_00000163778858162027563230000014096517370618544318_);}
	.st5{fill:url(#SVGID_00000091707325249125989900000012832078958646950588_);}
</style>
<radialGradient id="SVGID_1_" cx="24.145" cy="26.635" r="16.5021" gradientUnits="userSpaceOnUse">
	<stop  offset="0.1302" style="stop-color:#FFC53F"/>
	<stop  offset="0.2918" style="stop-color:#FFC642"/>
	<stop  offset="0.4195" style="stop-color:#FFC94C"/>
	<stop  offset="0.5352" style="stop-color:#FFCE5D"/>
	<stop  offset="0.5735" style="stop-color:#FFD064"/>
	<stop  offset="0.6607" style="stop-color:#FFCA5A"/>
	<stop  offset="0.8065" style="stop-color:#FFBA41"/>
	<stop  offset="0.992" style="stop-color:#FF9F17"/>
	<stop  offset="1" style="stop-color:#FF9E15"/>
</radialGradient>
<path class="st0" d="M36.1,26.2c0-0.4-0.1-0.7-0.2-1.1c0-0.9-1.7-1.3-5-1.3h-1.6c-2.1,0.1-3.1,0.7-3.1,1.7c0,0.2,0,0.3,0.1,0.4
	c-0.1,0.6-0.1,1-0.1,1.2c0,0.3,0.1,2.3,0.2,5.9v0.3h-0.1c-1.6-2.8-2.4-5.9-2.5-9.1v-0.5c0.1-3,1-6,2.6-8.6h0.1v0.8
	c0,0.9,0,2-0.1,3.3c0.3,0.9,1.2,1.5,2.1,1.4c0.7,0,1.9-0.1,3.6-0.2c1.9,0,2.9-0.5,2.9-1.6c0-0.4-0.1-1.5-0.2-3.3
	c0.1-3,0.2-4.6,0.3-4.8c0-2.7-2.8-4-8.3-4c-1.2,0-2.5,0.2-3.7,0.5c-3.6,1.2-6.1,3.1-7.4,5.6c-1.2,2-2.1,4.1-2.6,6.3
	c-0.6,3.4-1,6.8-1.2,10.2c0.1,0.2,0.1,0.4,0.1,0.5v0.6L12.1,31c0.1,0,0.1,0,0.1,0.1c0,0,0,0,0,0l-0.1,0.2l0.1,0.2
	c-0.1,3.9,0.4,7.8,1.5,11.6c0.7,2.3,2.6,3.4,5.8,3.4c8-0.2,12.4-0.2,13.1-0.2c0.8,0,1.6-0.1,2.4-0.5c0.8-0.7,1.2-2.7,1.2-6.2
	c0-2.4-0.1-5.6-0.2-9.6C36,30,36,28.7,36.1,26.2z"/>
<radialGradient id="SVGID_00000053542033456432980630000014748942011139105409_" cx="51.4898" cy="26.725" r="16.9377" gradientUnits="userSpaceOnUse">
	<stop  offset="0.1302" style="stop-color:#FFC53F"/>
	<stop  offset="0.2918" style="stop-color:#FFC642"/>
	<stop  offset="0.4195" style="stop-color:#FFC94C"/>
	<stop  offset="0.5352" style="stop-color:#FFCE5D"/>
	<stop  offset="0.5735" style="stop-color:#FFD064"/>
	<stop  offset="0.6607" style="stop-color:#FFCA5A"/>
	<stop  offset="0.8065" style="stop-color:#FFBA41"/>
	<stop  offset="0.992" style="stop-color:#FF9F17"/>
	<stop  offset="1" style="stop-color:#FF9E15"/>
</radialGradient>
<path style="fill:url(#SVGID_00000053542033456432980630000014748942011139105409_);" d="M61.9,8.1c-0.2-1.2-2.1-1.9-5.6-2.1h-0.9
	c-1.4,0-2.7,0.2-4,0.7c-8,2.7-12,8.6-12,17.5c0,1.9,0.2,3.7,0.5,5.5c1.3,6.2,2,9.9,2,11V41c0,0.2-0.1,1.3-0.2,3.4v0.1
	c0.2,1.9,1.1,2.9,2.7,2.9c2.6-0.5,5.2-1.1,7.7-2c7.5-3.4,11.3-9.9,11.3-19.4c0-0.9,0-2-0.1-3.3C62.4,13.6,61.9,8.7,61.9,8.1z M53,40
	h-0.2v-0.2c-3.1-6.5-4.6-12.4-4.6-17.7c-0.1-2.7,0.3-5.3,1.2-7.8h0.1c0.1,0.4,0.2,0.7,0.4,1.1c3.3,4.9,5,10.6,5,16.5
	C54.9,34.6,54.2,37.4,53,40z"/>
<radialGradient id="SVGID_00000176758158118289084970000001319210834318549917_" cx="77.41" cy="26.665" r="15.9629" gradientUnits="userSpaceOnUse">
	<stop  offset="0.1302" style="stop-color:#FFC53F"/>
	<stop  offset="0.2918" style="stop-color:#FFC642"/>
	<stop  offset="0.4195" style="stop-color:#FFC94C"/>
	<stop  offset="0.5352" style="stop-color:#FFCE5D"/>
	<stop  offset="0.5735" style="stop-color:#FFD064"/>
	<stop  offset="0.6607" style="stop-color:#FFCA5A"/>
	<stop  offset="0.8065" style="stop-color:#FFBA41"/>
	<stop  offset="0.992" style="stop-color:#FF9F17"/>
	<stop  offset="1" style="stop-color:#FF9E15"/>
</radialGradient>
<path style="fill:url(#SVGID_00000176758158118289084970000001319210834318549917_);" d="M87.5,27.9c0-1.3-0.2-1.9-0.8-1.9
	c-2.2,0-3.3,0.4-3.3,1.2v0.5c0,0.3,0,0.6,0.1,0.9c-0.1,1.2-0.2,2.1-0.3,2.8s-1.7,1.2-5.2,1.2h-0.1l2.5-22.9c0-2-1.1-3-3.3-3h-0.6
	c-4.3,0.4-6.8,0.6-7.3,0.6h-0.5c-0.7,0-1.4,0.5-1.6,1.2c0,0.9,0.2,5.3,0.5,13v3.7c0,5.4-0.1,9.5-0.2,12.2c0.1,0,0.1,0,0.1,0.1
	c0,0,0,0,0,0c-0.1,0-0.1,0-0.1,0.1c0,0,0,0,0,0v0.4c0,0.2,0,0.3,0.1,0.4c-0.1,0.1-0.1,0.3-0.1,0.4v5.2c0,1.7,0.5,2.6,1.4,2.6
	c2.9-0.7,5.9-1.1,8.9-1.1c3,0.1,6,0.3,8.9,0.9c0.9,0,1.4-0.5,1.4-1.6L87.5,27.9z"/>
<radialGradient id="SVGID_00000036252546688812604340000014127484772980578737_" cx="22.105" cy="73.7239" r="16.9961" gradientUnits="userSpaceOnUse">
	<stop  offset="0.1302" style="stop-color:#FFC53F"/>
	<stop  offset="0.2918" style="stop-color:#FFC642"/>
	<stop  offset="0.4195" style="stop-color:#FFC94C"/>
	<stop  offset="0.5352" style="stop-color:#FFCE5D"/>
	<stop  offset="0.5735" style="stop-color:#FFD064"/>
	<stop  offset="0.6607" style="stop-color:#FFCA5A"/>
	<stop  offset="0.8065" style="stop-color:#FFBA41"/>
	<stop  offset="0.992" style="stop-color:#FF9F17"/>
	<stop  offset="1" style="stop-color:#FF9E15"/>
</radialGradient>
<path style="fill:url(#SVGID_00000036252546688812604340000014127484772980578737_);" d="M29.1,55.6c-3.1-1.4-7.4-2.1-13-2.2
	c-1.3,0-2.6,0.2-3.9,0.5c-1.4,0.7-2.2,2.1-2.2,3.7c0,8.1-0.3,18.5-0.9,31.4c0,0.4,0,1.3,0.1,2.6c0.1,1.7,0.8,2.5,1.8,2.5
	c1.8,0,5.9-1.1,12.4-3.3c4.6-1.8,7.5-3.6,8.6-5.4c1.9-3.8,2.8-8.8,2.8-14.9V70c-0.1-2.8-0.4-5.6-1-8.4C33.2,59,31.5,56.9,29.1,55.6z
	 M23.9,72c0,4.6-1.6,9.2-4.7,13.9H19v-0.1c0.1-0.9,0.1-1.8,0.1-2.9C19.2,69,19.4,62,19.8,62c0.1,0,0.3,0.1,0.4,0.1
	c2.4,1.1,3.6,3.8,3.6,8.2V72z"/>
<radialGradient id="SVGID_00000176728458826588902090000007938754103141126072_" cx="49.775" cy="73.98" r="15.6599" gradientUnits="userSpaceOnUse">
	<stop  offset="0.1302" style="stop-color:#FFC53F"/>
	<stop  offset="0.2918" style="stop-color:#FFC642"/>
	<stop  offset="0.4195" style="stop-color:#FFC94C"/>
	<stop  offset="0.5352" style="stop-color:#FFCE5D"/>
	<stop  offset="0.5735" style="stop-color:#FFD064"/>
	<stop  offset="0.6607" style="stop-color:#FFCA5A"/>
	<stop  offset="0.8065" style="stop-color:#FFBA41"/>
	<stop  offset="0.992" style="stop-color:#FF9F17"/>
	<stop  offset="1" style="stop-color:#FF9E15"/>
</radialGradient>
<path style="fill:url(#SVGID_00000176728458826588902090000007938754103141126072_);" d="M50.5,69.8c3,0.2,4.5,0.5,4.5,0.9
	c0,2.9,0.5,4.3,1.6,4.3c1.1-0.3,2.2-0.6,3.2-1.1c0.8,0,1.2-0.8,1.2-2.3v-4.1c0-2.9,0-6.7,0.1-11.5c0-0.3-0.3-0.7-0.9-1
	c-6.2,0.4-9.9,0.5-11,0.5c-6.4,0-9.6,0.3-9.6,0.8c-0.6,0-1,4.1-1.2,12.3c0.2,10,0.3,15.7,0.3,17v0.5c0,1.7-0.2,3.5-0.4,5.2
	c0,0.9,0.6,1.5,1.9,1.6h0.9c0.4,0,2.1-0.1,5-0.4c1,0,3.7,0,8,0.1c1.9-0.1,3.4-0.2,4.3-0.2h0.8c1.1,0,1.7-0.7,1.9-2.2
	c-0.1-3.4-0.1-5.5-0.1-6.2c0-0.4,0.1-1.6,0.2-3.6c0-1.5-1.3-2.4-3.8-2.8c-0.1,0.1-0.2,0.1-0.3,0.1c-1.1,0-1.8,1.4-2,4.2
	c-1.2-0.2-2.5-0.2-3.7-0.2c-1.6,0-2.4-0.2-2.4-0.7c-0.1-1.1,0.1-2.3,0.8-3.2c2.5-0.3,3.8-0.9,4-1.8c0-0.7-0.4-1.3-1-1.5
	c-1.7-0.2-2.6-0.4-2.6-0.8V72C50.1,71.3,50.2,70.5,50.5,69.8z"/>
<radialGradient id="SVGID_00000119116756749202596840000000174871451615511733_" cx="77.85" cy="73.945" r="16.2068" gradientUnits="userSpaceOnUse">
	<stop  offset="0.1302" style="stop-color:#FFC53F"/>
	<stop  offset="0.2918" style="stop-color:#FFC642"/>
	<stop  offset="0.4195" style="stop-color:#FFC94C"/>
	<stop  offset="0.5352" style="stop-color:#FFCE5D"/>
	<stop  offset="0.5735" style="stop-color:#FFD064"/>
	<stop  offset="0.6607" style="stop-color:#FFCA5A"/>
	<stop  offset="0.8065" style="stop-color:#FFBA41"/>
	<stop  offset="0.992" style="stop-color:#FF9F17"/>
	<stop  offset="1" style="stop-color:#FF9E15"/>
</radialGradient>
<path style="fill:url(#SVGID_00000119116756749202596840000000174871451615511733_);" d="M90.2,77.2c-0.1-13.9-0.4-20.8-1-20.8
	c0-0.7-1.6-1.1-4.9-1.3c-1.4,0.1-2.2,0.7-2.2,1.5c0,1.4,0.1,4.3,0.3,8.7v0.1h-0.1c-0.2-0.5-1.5-2.5-4-6c-1.6-2.9-3.2-4.3-4.7-4.3
	c-2.4,0-4.5,0.1-6.3,0.2c-1.6,0-2.4,0.6-2.4,1.9c0.1,2.5,0.2,6,0.2,10.8v5c0.2,6.2,0.2,9.6,0.2,10.3v4.6c0,0.6,0,1.5-0.1,2.7
	c0.2,0.6,0.3,0.9,0.4,0.9c0,0.6,2.3,1.2,6.9,1.5c1.1,0,1.7-0.7,1.8-2c0-1.3-0.1-6.4-0.4-15.3c0-0.1-0.1-0.2-0.1-0.3H74
	c0.3,0.3,0.5,0.5,0.8,0.9c0.8,1.4,3.2,5.8,7,13.3c0.8,1.7,2.5,2.6,4.9,2.6c0.8,0,1.5-0.1,2.3-0.3c1.2-0.5,1.8-1.7,1.8-3.7v-0.8
	L90.2,77.2z"/>
</svg>
