<svg id="Capa_1" data-name="Capa 1" xmlns="http://www.w3.org/2000/svg" viewBox="0 0 100 100"><defs><style>.cls-1{fill:#fecd52;}</style></defs><path class="cls-1" d="M36.08,26.22a8.8,8.8,0,0,0-.21-1.07c0-.86-1.69-1.29-5-1.29H29.31c-2.08.1-3.12.68-3.12,1.72a.89.89,0,0,0,.11.43c-.07.62-.11,1-.11,1.18,0,.32.08,2.29.22,5.91v.32H26.3a19.09,19.09,0,0,1-2.47-9.13v-.54a18,18,0,0,1,2.58-8.6h.11v.75c0,.9,0,2-.11,3.34a2,2,0,0,0,2.15,1.39c.7,0,1.92-.07,3.65-.21,1.94,0,2.91-.54,2.91-1.61,0-.36-.08-1.47-.22-3.34.14-3,.25-4.57.32-4.83q0-4-8.27-4a15.18,15.18,0,0,0-3.66.54q-5.46,1.87-7.42,5.59a20.68,20.68,0,0,0-2.58,6.34,71.76,71.76,0,0,0-1.18,10.21,1.12,1.12,0,0,1,.11.54v.64l-.11.54a.1.1,0,0,1,.11.11l-.11.21.11.22a38.06,38.06,0,0,0,1.5,11.61c.69,2.29,2.62,3.44,5.81,3.44q12-.23,13.11-.22A4.72,4.72,0,0,0,35,45.89q1.18-1,1.18-6.23,0-3.63-.21-9.57C36,30,36,28.69,36.08,26.22Z"/><path class="cls-1" d="M61.93,8.11Q61.63,6.37,56.34,6h-.86a14.19,14.19,0,0,0-4,.65q-12,4.11-12,17.52A28.42,28.42,0,0,0,40,29.72q2,9.31,2,11V41c0,.18-.07,1.33-.21,3.44v.11c.2,1.93,1.09,2.9,2.69,2.9a53.88,53.88,0,0,0,7.74-2q11.28-5.13,11.28-19.35c0-.89,0-2-.1-3.33Q61.93,9,61.93,8.11ZM53,40h-.22v-.22Q48.17,30,48.17,22.08a20.38,20.38,0,0,1,1.18-7.84h.11a2.78,2.78,0,0,0,.43,1.07,29.56,29.56,0,0,1,5,16.45A19.54,19.54,0,0,1,53,40Z"/><path class="cls-1" d="M87.46,27.94c0-1.29-.25-1.93-.75-1.93-2.23,0-3.34.39-3.34,1.18v.54a3.69,3.69,0,0,0,.11.86c-.09,1.2-.2,2.13-.32,2.79S81.44,32.56,78,32.56h-.11L80.36,9.67q0-3-3.33-3h-.64q-6.48.64-7.31.64h-.54a1.6,1.6,0,0,0-1.61,1.19q0,1.42.53,13v3.66q0,8.15-.21,12.25a.1.1,0,0,1,.11.11.1.1,0,0,0-.11.11v.43a.79.79,0,0,0,.11.43.77.77,0,0,0-.11.43v5.16c0,1.72.46,2.58,1.4,2.58a40.08,40.08,0,0,1,8.92-1.08,58.41,58.41,0,0,1,8.92.86c.93,0,1.4-.54,1.4-1.61Z"/><path class="cls-1" d="M29.14,55.56q-4.58-2.14-13-2.15a12.47,12.47,0,0,0-3.87.54,3.83,3.83,0,0,0-2.15,3.65q0,12.09-.86,31.39c0,.41,0,1.27.11,2.58.14,1.65.75,2.47,1.83,2.47q2.74,0,12.36-3.33,6.93-2.64,8.6-5.38,2.79-5.67,2.79-14.94V70a43.29,43.29,0,0,0-1-8.38A10.08,10.08,0,0,0,29.14,55.56ZM23.87,72q0,6.91-4.73,13.87H19v-.11c.08-.86.11-1.82.11-2.9Q19.27,62,19.79,62a3,3,0,0,1,.43.1c2.43,1.06,3.65,3.79,3.65,8.17Z"/><path class="cls-1" d="M50.49,69.8c3,.2,4.46.49,4.46.89,0,2.88.54,4.32,1.64,4.32a21.63,21.63,0,0,0,3.25-1.07c.81,0,1.21-.76,1.21-2.29V67.52c0-2.87,0-6.71.11-11.53,0-.34-.3-.66-.89-1-6.25.36-9.91.54-11,.54q-9.57,0-9.57.78-.89,0-1.21,12.28.31,15,.32,17v.53a44.55,44.55,0,0,1-.43,5.22c0,.91.62,1.46,1.86,1.63h.86c.44,0,2.11-.14,5-.43q1.54,0,8,.11c1.93-.14,3.38-.21,4.33-.21h.77c1.08,0,1.7-.73,1.86-2.18q-.13-5.13-.14-6.21c0-.37.09-1.56.25-3.57,0-1.51-1.28-2.45-3.82-2.82a.79.79,0,0,1-.32.1c-1.11,0-1.77,1.41-2,4.22a24.46,24.46,0,0,0-3.71-.21c-1.6,0-2.39-.22-2.39-.65a4.91,4.91,0,0,1,.78-3.25c2.45-.27,3.78-.88,4-1.85a1.69,1.69,0,0,0-1-1.53c-1.74-.2-2.6-.45-2.6-.76V72A6.75,6.75,0,0,1,50.49,69.8Z"/><path class="cls-1" d="M90.21,77.16q-.17-20.85-1-20.85,0-1-4.94-1.29c-1.44.14-2.15.65-2.15,1.51,0,1.43.1,4.33.32,8.7v.11h-.11c-.21-.5-1.54-2.51-4-6Q75.88,55,73.66,55q-3.6,0-6.35.22c-1.57,0-2.36.64-2.36,1.93.14,2.45.21,6,.21,10.75v5q.23,9.24.22,10.32v4.62c0,.61,0,1.51-.11,2.69.18.57.32.86.43.86,0,.64,2.29,1.15,6.88,1.5q1.59,0,1.83-2,0-2-.43-15.26a.85.85,0,0,0-.11-.32H74a4.31,4.31,0,0,1,.75.86q1.23,2.08,7,13.33Q83,92.1,86.66,92.1a9,9,0,0,0,2.26-.32c1.22-.5,1.83-1.72,1.83-3.65v-.75Z"/></svg>